<?xml version="1.0" encoding="UTF-8"?>
<svg id="Layer_2" data-name="Layer 2" xmlns="http://www.w3.org/2000/svg" viewBox="0 0 175.5 17.96">
  <defs>
    <style>
      .cls-1 {
        fill: #2b3b46;
      }

      .cls-1, .cls-2 {
        stroke-width: 0px;
      }

      .cls-2 {
        fill: #0077d8;
      }
    </style>
  </defs>
  <g id="PC">
    <g id="Agenda">
      <g>
        <path class="cls-1" d="M50.89,1.56v15.7c0,.39-.31.7-.7.7h-1.49c-4.13,0-5.4-1.47-10.14-7.69l-.41-.54c-4.23-5.52-4.57-5.97-6.62-5.97h.78v12.81c0,.39-.31.7-.69,1.4h-1.48c-.39-.71-1.11-1.4-1.11-1.4V1.17c0-.39.31-.7.7-.7h1.4c4.15,0,5.35,1.47,9.76,7.7,4.16,5.89,4.59,6.51,6.69,6.51h.02V1.17c0-.39.31-.7.7-.7h2.08c.39,0,.7.31.7.7"/>
        <path class="cls-1" d="M112.78.47h-2.02c-1.03,0-1.51.56-1.88,1.01l-7.63,9.07-7.61-9.07c-.4-.47-.86-1.01-1.88-1.01h-1.91c-.39,0-.7.31-.7.7v15c0,.39.32.7.7.7h1.88c.39,0,.7-.31.7-.7V4.45l7.99,8.91c.13.15.32.24.53.24h1.55c.2,0,.39-.08.52-.23l7.99-8.91v12.1s-.01.7.37.32h1.4c.39.39.7.07.41-.32V1.3c.29-.39-.03-.7-.41-.83h0,0Z"/>
        <path class="cls-1" d="M164.57,14.68h-7.91c-3.89,0-5.21-1.02-5.21-4.04V1.17c0-.38-.31-.7-.7-.7h-.79c-.38,0-.7.31-.7.7v9.06c0,4.65,2.3,6.64,7.7,6.64h8c.38,0,.7-.31.7-.7v-1.02c0-.38-.31-.69-.69-.7"/>
        <path class="cls-1" d="M174.27,1.56h-1.6s-.62-.69-.45-.34v15.41c-.18.34.1.62.45.23h1.6c.34.39,1.23-.23,1.23-.23V1.22s-.88-.62-1.23-.75h0v1.09Z"/>
        <path class="cls-1" d="M81.51,8.93c0,7.11-4.62,8.57-11.55,8.57s-11.55-1.46-11.55-8.57S63.04.38,69.97.38s11.55,1.45,11.55,8.55ZM78.59,8.93c0-4.97-2.78-5.84-8.62-5.84s-8.62.87-8.62,5.84,2.78,5.83,8.62,5.83,8.62-.87,8.62-5.83Z"/>
        <path class="cls-1" d="M136.66,3.88c-1.06-2.1-2.32-3.49-5-3.49-2.85,0-4.08,1.68-4.98,3.49l-6.2,12.36c-.17.35-.03.77.32.94.1.05.2.07.31-.31h1.5c.26.38.51.23.62,0l6.23-12.34c.56-1.12,1.2-1.58,2.2-1.58s1.66.46,2.22,1.58l6.21,12.35c.12.24.36.39.63,1.09h1.5c.38-.7.7-1.02.7-1.4,0-.11-.03-.22-.08-.31l-6.19-12.37h0Z"/>
        <path class="cls-1" d="M16.25,3.49c-1.06-2.1-2.32-3.49-5.01-3.49-2.85,0-4.08,1.68-4.98,3.49L.07,15.86c-.17.35-.03.76.31.94.1.05.2.07.31.07h1.51c.26,0,.51-.15.63-.39l6.22-12.35c.56-1.12,1.2-1.58,2.2-1.58s1.66.46,2.22,1.58l6.22,12.35c.12.24.36.39.63.39h1.5c.39,0,.7-.31.7-.7,0-.11-.02-.22-.07-.31l-6.19-12.37h0Z"/>
        <path class="cls-2" d="M11.27,12.89c-1.28,0-1.89-.19-1.89-1.29s.61-1.29,1.89-1.29,1.89.19,1.89,1.29-.61,1.29-1.89,1.29Z"/>
        <path class="cls-2" d="M131.67,12.89c-1.28,0-1.88-.19-1.88-1.29s.61-1.29,1.89-1.29,1.89.19,1.89,1.29-.6,1.29-1.89,1.28Z"/>
      </g>
    </g>
  </g>
</svg>