<?xml version="1.0" encoding="UTF-8"?>
<svg id="Layer_2" data-name="Layer 2" xmlns="http://www.w3.org/2000/svg" viewBox="0 0 178.07 30.69">
  <defs>
    <style>
      .cls-1 {
        stroke-width: 0px;
      }
    </style>
  </defs>
  <g id="PC">
    <g id="Agenda">
      <g id="Layer_1-2" data-name="Layer 1-2">
        <g>
          <path class="cls-1" d="M9.48,2.21c0-.98-.6-2.21-3.13-2.21h-3.88l-1.11,5.11h4.06c3.18-.02,4.06-1.51,4.06-2.9Z"/>
          <path class="cls-1" d="M19.82,2.21c0-.98-.6-2.21-3.13-2.21h-3.88l-1.11,5.11h4.04c3.2-.02,4.08-1.51,4.08-2.9Z"/>
          <path class="cls-1" d="M8.11,9.37c0-.98-.6-2.21-3.13-2.21H1.11l-1.11,5.11h4.04c3.18,0,4.08-1.51,4.08-2.9Z"/>
          <path class="cls-1" d="M18.45,9.37c0-.98-.6-2.21-3.13-2.21h-3.88l-1.11,5.11h4.06c3.15,0,4.06-1.51,4.06-2.9Z"/>
          <path class="cls-1" d="M29.26,6.31c0-.98-.6-2.21-3.13-2.21h-3.88l-1.11,5.11h4.04c3.18-.02,4.08-1.51,4.08-2.9Z"/>
          <path class="cls-1" d="M27.76,14.49c0-.98-.6-2.21-3.13-2.21h-3.88l-1.11,5.11h4.04c3.18,0,4.08-1.51,4.08-2.9Z"/>
          <path class="cls-1" d="M16.96,17.55c0-.98-.6-2.21-3.13-2.21h-3.88l-1.11,5.11h4.04c3.18-.02,4.08-1.51,4.08-2.9Z"/>
          <path class="cls-1" d="M85.73,19.43c-.18.38-1.05,2.08-3.27,2.08-2.56,0-3.56-2.13-3.56-3.69,0-2.61,1.75-4.95,4.34-4.95,2.78,0,3.44,2.08,3.51,2.46h4.09c.25-1.54-.98-6.22-7.45-6.22-4.74,0-8.53,3.79-8.53,8.83,0,4.14,2.59,7.33,7.38,7.33,5.98,0,7.57-4.69,7.78-5.84,0,0-4.29,0-4.29,0Z"/>
          <path class="cls-1" d="M54.53,19.88c0-.25.07-.7.28-1.62.19-.95,3.07-14.17,3.07-14.17h-3.81l-3.16,14.59c-.12.62-.19,1.22-.19,1.74,0,3.19,2.46,4.13,4.46,4.13.7,0,1.37-.12,1.52-.15.07-.33.67-3.07.7-3.19-.07,0-.5.05-.99.05-1.42,0-1.84-.59-1.84-1.39h-.02Z"/>
          <polygon class="cls-1" points="108.97 8.18 103.05 8.18 96.82 13.78 98.93 4.09 95 4.09 90.59 24.54 94.15 24.54 95.25 19.42 97.73 17.47 101.13 24.54 105.59 24.54 100.77 15.08 108.97 8.18"/>
          <path class="cls-1" d="M33.45,18.24c.33-1.46,3.06-14.15,3.06-14.15h7.37c5.35,0,6.67,2.98,6.67,4.77,0,3.99-3.76,5.05-4.22,5.17.43.16,2.88,1.11,2.88,4.24,0,3.41-3.13,6.26-8.01,6.26h-2.22c-4.12.02-6.32-2.8-5.53-6.32h-.01ZM44.88,17.38c0-.91-.6-2.05-3.17-2.05h-3.55l-1.09,5.11h4.01l3.89-3.07h-.08ZM46.65,10.01c0-.97-.75-1.82-2.57-1.82h-3.9l-.87,4.09h4.07c2.14,0,3.27-1.08,3.27-2.28h0Z"/>
          <path class="cls-1" d="M106.81,18.24c.33-1.46,3.06-14.15,3.06-14.15h7.37c5.35,0,6.67,2.98,6.67,4.77,0,3.99-3.76,5.05-4.22,5.17.43.16,2.88,1.11,2.88,4.24,0,3.41-3.15,6.26-8.01,6.26h-2.22c-4.12.02-6.32-2.8-5.53-6.32h-.01ZM118.49,17.58c0-1-.65-2.24-3.47-2.24h-3.71l-1.09,5.11h4.18c2.69,0,4.09-1.22,4.09-2.87ZM119.6,10.01c0-.97-.75-1.82-2.59-1.82h-3.86l-.87,4.09h4.07c2.14,0,3.27-1.08,3.27-2.28h-.01Z"/>
          <path class="cls-1" d="M150.06,9.2c-3.97,0-6.7,2.36-7.6,6.77-.39,1.9-1.83,8.57-1.83,8.57h3.73s1.36-6.36,1.8-8.35c.56-2.61,1.95-3.51,3.8-3.51.61,0,.97.07,1.17.1.1-.54.63-2.9.75-3.46-.39-.02-1.02-.12-1.83-.12h.01Z"/>
          <path class="cls-1" d="M162.86,30.69l13.27-22.51h-4.35l-5.88,10.82-1.37-9.8h-4.53c-4.93,0-7.49,2.26-8.39,6.56-.46,2.14-1.9,8.78-1.9,8.78h3.6s1.42-6.57,2-9.21c.56-2.56,2.46-3.34,4.51-2.92l.81-3.78c.6,3.57,2.46,15.04,2.46,15.04l-4.06,7h3.82Z"/>
          <path class="cls-1" d="M65.05,17.8c.85-.12,3.28-.5,3.64-.55-.07.28-.15.67-.22.99-.45,1.89-2.36,3.11-4.51,3.11-1.37,0-2.17-.73-2.17-1.6-.02-.73.64-1.6,3.26-1.96h0ZM63.99,13.29c.11-.16,1.12-1.74,3.67-1.74,1.59,0,2.4.58,2.4,1.27,0,1-1.59,1.25-4.38,1.64-4.77.67-7.79,2.16-7.79,5.61,0,2.45,2.03,4.82,5.63,4.82,3,0,4.56-1.8,4.69-1.96.02.44.07,1.09.11,1.62h4.12c-.13-.71-.44-2.09.05-4.27.26-1.15,1-4.45,1.36-6.28.71-3.47-1.2-5.89-6.05-5.89-6.25,0-8.05,4.48-8.34,5.19h4.54-.01Z"/>
          <path class="cls-1" d="M134.59,19.8c.14.3-.78,1.6-2.84,1.6-2.99,0-3.66-2.54-3.59-2.99h11.63c.07-.5.33-1.54.33-2.62,0-3.68-2.5-7.05-7.52-7.05-4.6,0-8.29,3.86-8.29,8.47s2.67,7.6,7.39,7.6c5.83,0,7.39-4.56,7.55-4.36h-4.65v-.65ZM132.64,12.53c2.57,0,3.54,1.56,3.44,2.81h-7.34c.19-.8,1.42-2.81,3.91-2.81Z"/>
          <path class="cls-1" d="M175.91,19.77c1.18,0,2.16.93,2.16,2.17s-1.01,2.17-2.16,2.17-2.18-.93-2.18-2.17,1.01-2.17,2.18-2.17ZM175.91,20.12c-.98,0-1.76.79-1.76,1.81s.78,1.83,1.76,1.83,1.74-.77,1.74-1.83-.78-1.81-1.74-1.81ZM175.44,23.52h.05v-3.07h.51c.58.26.87.47.87.97,0,.45-.28.64-.65.7l.71.38h-2.45.98v1.02ZM175.44,20.45h.45c.47,1.34.61,1.2.61.93,0-.24-.11-.38-.54.09h-.47v-1.02h-.05Z"/>
        </g>
      </g>
    </g>
  </g>
</svg>