<?xml version="1.0" encoding="UTF-8"?>
<svg xmlns="http://www.w3.org/2000/svg" xmlns:xlink="http://www.w3.org/1999/xlink" id="Camms_logo" data-name="Camms logo" width="162.543" height="31.698" viewBox="0 0 162.543 31.698">
  <defs>
    <clipPath id="clip-path">
      <rect id="Rectangle_36" data-name="Rectangle 36" width="162.542" height="31.698" fill="#fff"></rect>
    </clipPath>
  </defs>
  <g id="Group_16" data-name="Group 16" transform="translate(0 0)" clip-path="url(#clip-path)">
    <path id="Path_5" data-name="Path 5" d="M0,16.065V15.72C0,6.461,6.374,0,14.945,0c7.063,0,12.533,3.532,13.222,10.767H22.353c-.647-4.091-2.929-6.2-7.365-6.2-5.426,0-8.958,4.221-8.958,11.112v.345c0,6.934,3.316,11.025,9,11.025,4.264,0,7.279-2.154,7.882-6.5h5.6c-.9,7.408-6.158,11.155-13.48,11.155C5.383,31.7,0,25.54,0,16.065" transform="translate(0 0)" fill="#0050a0"></path>
    <path id="Path_6" data-name="Path 6" d="M46.37,24.431v-.344c0-7.193,4.522-11.758,9.949-11.758a7.53,7.53,0,0,1,6.934,3.876V12.8h5.211V35.328H63.253v-3.7A8.552,8.552,0,0,1,56.1,35.758c-5.254,0-9.733-4.005-9.733-11.327m17.055-.258v-.345c0-5-2.326-7.408-5.814-7.408-3.575,0-5.9,2.671-5.9,7.537V24.3c0,4.953,2.5,7.321,5.642,7.321,3.359,0,6.073-2.412,6.073-7.45" transform="translate(-15.271 -4.061)" fill="#0050a0"></path>
    <path id="Path_7" data-name="Path 7" d="M92.044,12.8v3.445a7.558,7.558,0,0,1,6.848-3.919c2.929,0,5.255,1.249,6.374,4.049a8.893,8.893,0,0,1,7.624-4.049c4.135,0,7.494,2.541,7.494,8.744V35.328h-5.212V21.417c0-3.316-1.421-4.738-4.005-4.738a4.8,4.8,0,0,0-4.953,5.168v13.48H101V21.417c0-3.316-1.464-4.738-4.005-4.738a4.8,4.8,0,0,0-4.953,5.168v13.48H86.833V12.8Z" transform="translate(-28.597 -4.061)" fill="#0050a0"></path>
    <path id="Path_8" data-name="Path 8" d="M149.492,12.8v3.445a7.558,7.558,0,0,1,6.848-3.919c2.929,0,5.255,1.249,6.374,4.049a8.893,8.893,0,0,1,7.624-4.049c4.135,0,7.494,2.541,7.494,8.744V35.328H172.62V21.417c0-3.316-1.421-4.738-4.005-4.738a4.8,4.8,0,0,0-4.953,5.168v13.48H158.45V21.417c0-3.316-1.464-4.738-4.005-4.738a4.8,4.8,0,0,0-4.953,5.168v13.48h-5.211V12.8Z" transform="translate(-47.516 -4.061)" fill="#0050a0"></path>
    <path id="Path_9" data-name="Path 9" d="M199.61,28.308h4.91c.258,2.283,1.421,3.618,4.479,3.618,2.8,0,4.049-.991,4.049-2.885,0-1.852-1.508-2.541-4.824-3.1-5.943-.947-8.14-2.627-8.14-6.848,0-4.522,4.221-6.762,8.442-6.762,4.608,0,8.269,1.722,8.829,6.8H212.53c-.431-2.067-1.594-3.015-4.005-3.015-2.239,0-3.575,1.076-3.575,2.67,0,1.636,1.076,2.283,4.651,2.886,5.3.818,8.442,2.11,8.442,6.89,0,4.565-3.231,7.193-9,7.193-5.814,0-9.216-2.671-9.432-7.451" transform="translate(-65.737 -4.061)" fill="#0050a0"></path>
    <path id="Path_10" data-name="Path 10" d="M232.148,40.391a3.424,3.424,0,1,1,3.4,3.359,3.346,3.346,0,0,1-3.4-3.359" transform="translate(-76.453 -12.182)" fill="#00b4f0"></path>
  </g>
</svg>
