<?xml version="1.0" encoding="UTF-8"?>
<svg id="Layer_2" data-name="Layer 2" xmlns="http://www.w3.org/2000/svg" viewBox="0 0 186.6 65.01">
  <defs>
    <style>
      .cls-1 {
        fill: #5c7a89;
      }

      .cls-1, .cls-2 {
        stroke-width: 0px;
      }

      .cls-2 {
        fill: #a1237f;
      }
    </style>
  </defs>
  <g id="PC">
    <g id="Agenda">
      <g>
        <polygon class="cls-2" points="0 64.17 22.46 64.17 30.82 53.78 19.17 40.19 0 64.17"/>
        <polygon class="cls-2" points="43.06 38.84 20.24 38.84 42.81 65.01 65.63 65.01 43.06 38.84"/>
        <path class="cls-2" d="M26.6,32.6c-7.51-4.47-13.42-11.9-17.65-22.29-.08,4.39.34,8.78,1.27,13.09,3.29,12.58,11.74,12.33,16.38,9.2Z"/>
        <path class="cls-2" d="M37.46,36.14c1.87,0,3.74-.43,5.44-1.28,1.87-.94,3.57-2.13,4.93-3.66,1.62-1.79,2.98-3.83,4.08-6.04,1.28-2.55,2.21-5.27,2.81-8.08l4.08-.85c-3.4-5.61-7.14-11.05-11.22-16.24h-.09c-4.08,5.19-8.76,9.95-13.77,14.2v.09l4.17,1.62c-.6,2.98-1.45,5.87-2.64,8.67-.94,2.3-2.21,4.51-3.83,6.46-1.28,1.62-2.81,2.89-4.59,3.91-1.53.85-3.32,1.36-5.1,1.36l15.73-.17Z"/>
        <path class="cls-1" d="M70.03,22.8h10.98v2.53h-8.44v5.91h7.6v2.53h-7.6v7.6h8.44v2.53h-10.98v-21.11Z"/>
        <path class="cls-1" d="M81.96,22.8h2.92l3.86,7.89,3.86-7.89h2.75l-5.32,10.38,5.66,10.73h-2.92l-4.2-8.49-4.29,8.49h-2.75l5.66-10.73-5.23-10.38Z"/>
        <path class="cls-1" d="M110.17,36.31c-.26,4.01-1.79,7.68-6.4,7.68-5.98,0-6.83-5.64-6.83-10.93s.94-10.93,6.83-10.93c4.27,0,6.15,2.39,6.23,6.57h-2.73c-.09-2.39-.85-4.44-3.5-4.44-3.59,0-4.1,3.93-4.1,8.79s.51,8.79,4.1,8.79c3.16,0,3.59-2.99,3.67-5.55h2.73Z"/>
        <path class="cls-1" d="M112.24,22.8h2.53v18.58h8.44v2.53h-10.98v-21.11Z"/>
        <path class="cls-1" d="M124.99,22.8h3.29v14.61c0,3.04.96,4.47,3.38,4.47,2.57,0,3.38-1.6,3.38-4.47v-14.61h2.53v14.61c0,3.97-2.1,6.59-6.38,6.59s-6.29-2.28-6.29-6.59l.09-14.61Z"/>
        <path class="cls-1" d="M149.07,28.71c0-1.83-.55-3.17-2.26-3.47-2.38-.43-4.57,1.77-3.98,4.12,1.05,4.2,9.22,1.75,9.22,8.52,0,4.58-3.38,5.87-6.19,5.87-4.66,0-6.03-2.41-6.03-6.59h2.41c0,2.25.16,4.58,3.7,4.58,1.85.08,3.38-1.37,3.46-3.22v-.24c0-5.63-9.33-2.33-9.33-9.65,0-1.85.8-5.47,5.79-5.47,3.78,0,5.55,1.93,5.55,5.55h-2.33Z"/>
        <path class="cls-1" d="M155.3,22.8h2.53v21.11h-2.53v-21.11Z"/>
        <path class="cls-1" d="M159.33,22.8h2.82l4.01,17.73h.08l4.01-17.73h2.82l-5.3,21.11h-3.33l-5.13-21.11Z"/>
        <path class="cls-1" d="M174.72,22.8h10.98v2.53h-8.44v5.91h7.6v2.53h-7.6v7.6h8.44v2.53h-10.98v-21.11Z"/>
        <path class="cls-1" d="M69.18,48.13h2.5l5.94,14.28h0v-14.28h1.69v16.04h-1.94l-6.42-14.35h-.08v15.2h-1.69v-16.89Z"/>
        <path class="cls-1" d="M85.98,47.28h7.68v1.69h-6.75v5.91h6.75v1.69h-5.91v6.75h6.75v1.69h-8.44l-.08-17.73Z"/>
        <path class="cls-1" d="M102.95,48.97h-4.22v-1.69h10.13v1.69h-4.22v15.2h-1.69v-15.2Z"/>
        <path class="cls-1" d="M112.54,48.13h1.52l2.89,14.35h.08l2.8-14.35h1.79s2.91,14.91,2.91,14.91h0l3-14.91h1.54l-3.6,16.89h-1.8l-2.99-15.2h-.06l-2.72,14.35h-1.96l-3.4-16.04Z"/>
        <path class="cls-1" d="M137.29,47.63c3.46,0,5.32,2.62,5.32,8.61s-1.94,8.61-5.32,8.61-5.32-2.62-5.32-8.61,1.94-8.61,5.32-8.61ZM137.29,63.59c2.36,0,3.8-1.94,3.8-7.35s-1.44-7.35-3.8-7.35-3.8,1.94-3.8,7.35,1.44,7.35,3.8,7.35Z"/>
        <path class="cls-1" d="M147.7,48.13h5.06c2.83,0,4.37,1.63,4.37,4.2,0,2.06-.77,3.86-3.09,4.29h0c2.14.17,2.83,1.37,2.91,4.03l.09,1.89c-.09.86.17,1.8.69,2.49h-1.51c-.37-.84-.56-1.67-.46-2.6l-.09-1.58c-.09-3.25-.74-4.27-3.62-4.27h-2.57l-.25,7.6h-1.52v-16.04ZM149.39,55.73h2.6c2.42,0,3.81-1.13,3.81-3.38,0-2.08-.87-3.38-3.64-3.38h-2.77v6.75Z"/>
        <path class="cls-1" d="M163.75,48.13h.84v8.44h.08l6.23-8.44h2.18l-5.07,6.68,5.66,10.21h-1.6l-4.98-8.94-1.66,2.62v6.32h-1.69v-16.89Z"/>
        <path class="cls-1" d="M184.57,52.35c0-2.19-.93-3.45-2.96-3.45-1.6-.17-2.67,2.62-2.67,2.62v.34s7.65,2.28,7.65,8.11c0,3.21-2.03,4.9-5.07,4.9s-4.9-1.69-5.12-4.98v.08h1.69v.09c.05,2.11,1.15,3.55,3.35,3.55s3.63-1.01,3.63-3.38c0-4.98-8.11-2.11-8.11-8.19,0-2.62,1.69-4.39,4.56-4.39,3.12,0,4.56,1.6,4.56,4.72h-1.52Z"/>
      </g>
    </g>
  </g>
</svg>