<?xml version="1.0" encoding="UTF-8"?>
<svg id="Layer_2" data-name="Layer 2" xmlns="http://www.w3.org/2000/svg" viewBox="0 0 526.32 59.79">
  <defs>
    <style>
      .cls-1, .cls-2 {
        stroke-width: 0px;
      }

      .cls-2 {
        fill: #da291c;
      }
    </style>
  </defs>
  <g id="PC">
    <g id="Agenda">
      <g>
        <path class="cls-1" d="M302.61,13.04V.34h14.05v59.44h-14.05V13.04ZM237.76.34h56.2v12.97h-25.94v46.47h-14.05V13.31h-16.21V.34ZM526.32.34v12.97h-25.94v46.47h-14.05V13.31h-16.21V.34h56.2ZM0,.34h62.68v12.97H14.05v11.89h41.07v12.97H14.05v21.61H0V.34ZM404.2.34h58.36v12.97h-44.31v9.73h36.75v12.97h-35.66v10.81h44.31v12.97h-59.44V.34h0ZM393.39,17.1v41.61h-14.05V17.31c0-2.21-1.79-4-4-4h-32.75v46.47h-15.13V.34h49.17c9.21,0,16.75,7.54,16.75,16.75ZM216.06.34h-49.62v59.44h14.05v-21.61h33.51c1.79.11,3.24,1.54,3.24,3.31v18.31h14.05v-18.61c-.09-3.13-1.82-5.84-4.42-7.35,3.13-2.92,5.08-7.13,5.5-11.67v-6.27c-.31-8.75-7.44-15.89-16.3-15.89v.34ZM217.23,21.88c0,1.77-1.42,3.33-3.27,3.33h-33.47v-12.97h33.47c1.74,0,3.27,1.44,3.27,3.33v6.32Z"/>
        <path class="cls-2" d="M155.63,21.96v15.13h-23.78v-15.13h23.78ZM101.59,58.71h23.78v-15.13h-23.78v15.13ZM155.63,13.02c0-7.03-5.7-12.68-12.8-12.68h-10.97v15.13h23.78v-2.45h0ZM101.59.34v15.13h23.78V.34h-23.78ZM70.25,21.96v15.13h23.78v-15.13h-23.78ZM131.85,58.71h10.92c7.1,0,12.86-5.76,12.86-12.86v-2.27h-23.78v15.13ZM83.11,58.71h10.92v-15.13h-23.78v2.27c0,7.1,5.76,12.86,12.86,12.86ZM70.25,13.21v2.27h23.78V.34h-10.92c-7.1,0-12.86,5.76-12.86,12.86Z"/>
      </g>
    </g>
  </g>
</svg>