<?xml version="1.0" encoding="UTF-8"?>
<svg id="Layer_2" data-name="Layer 2" xmlns="http://www.w3.org/2000/svg" viewBox="0 0 171.39 43.1">
  <defs>
    <style>
      .cls-1 {
        font-family: MyriadPro-Regular, 'Myriad Pro';
        font-size: 5.98px;
        isolation: isolate;
      }

      .cls-2, .cls-3, .cls-4, .cls-5 {
        stroke-width: 0px;
      }

      .cls-3 {
        fill: #d03636;
      }

      .cls-4 {
        fill: #fff;
      }

      .cls-5 {
        fill: #706f6f;
      }
    </style>
  </defs>
  <g id="PC">
    <g id="Agenda">
      <g>
        <g>
          <path class="cls-2" d="M53.8,24.28c0,2.68-1.76,3.99-5.34,3.99h-10v-2.28h9.81c1.14-.14,1.88-.37,2.23-.83.23-.34.34-2.02.34-2.02h-7.13c-1.71,0-3.02-.29-3.94-.92-.86-.63-1.31-1.5-1.31-2.59v-6.79c0-1.32.4-2.36,1.14-2.99.74-.63,2.05-.98,3.82-.98h5.25c1.83,0,3.08.29,3.94.86.8.58,1.26,1.5,1.26,2.82v11.72h-.06ZM51.01,20.29v-6.54c0-.68-.17-1.18-.52-1.41-.52-.45-1.26-.62-2.12-.62h-3.96c-1.66,0-2.53.62-2.53,1.92v5.41c0,1.24.92,1.8,2.81,1.8h5.63c.46,0,.69-.17.69-.56Z"/>
          <path class="cls-2" d="M73.31,19.14c0,1.04-.4,1.86-1.2,2.49-.8.64-1.89.93-3.26.93h-6.07c-1.43,0-2.58-.29-3.49-.81-.92-.58-1.43-1.45-1.43-2.49v-1.74c0-1.11.41-1.99,1.29-2.57.88-.59,2.05-.94,3.51-.94h7.78c0-.76-.18-1.35-.47-1.7-.35-.41-.99-.59-2.05-.59h-10.06v-2.28h10.23c3.45,0,5.17,1.11,5.17,3.4v6.3h.06ZM70.4,18.8v-2.62c0-.29-.23-.46-.75-.46h-6.12c-1.5,0-2.25.57-2.25,1.71v1.31c0,.51.23.86.69,1.14.46.29.98.4,1.62.4h4.56c1.56,0,2.25-.46,2.25-1.48Z"/>
          <path class="cls-2" d="M80.67,23.14h-3.42V4.88h3.42v18.26Z"/>
          <path class="cls-2" d="M99.62,19.14c0,1.04-.4,1.86-1.21,2.49-.8.64-1.9.93-3.28.93h-6.09c-1.44,0-2.59-.29-3.51-.81-.92-.58-1.44-1.45-1.44-2.49v-1.74c0-1.11.41-1.99,1.29-2.57.88-.59,2.05-.94,3.51-.94h7.72c0-.76-.18-1.35-.47-1.7-.35-.41-.99-.59-2.05-.59h-10.01v-2.28h10.23c3.45,0,5.17,1.11,5.17,3.4v6.3h.11ZM96.65,18.8v-2.62c0-.29-.23-.46-.75-.46h-6.12c-1.5,0-2.25.57-2.25,1.71v1.31c0,.51.23.86.69,1.14.46.29.98.4,1.62.4h4.56c1.5,0,2.25-.46,2.25-1.48Z"/>
          <path class="cls-2" d="M118.36,23.14h-3.84l-4.53-4.76-4.53,4.76h-3.78l6.53-7.05-6.13-6.65h3.72l4.12,4.41,4.18-4.41h3.72l-6.02,6.65,6.53,7.05Z"/>
          <path class="cls-2" d="M123.4,23.14h-3.36V4.88h3.42v18.26h-.06ZM135,23.14h-3.93l-6.82-6.07c-.4-.35-.58-.64-.58-.92,0-.35.23-.69.64-1.04l6.47-5.66h3.87l-7.51,6.7,7.86,6.99Z"/>
          <path class="cls-2" d="M152.56,14.86l-11.98,3.59h0c0,.68.28,1.26.79,1.54.34.17,1.02.29,1.92.29h9.27v2.85h-10c-1.72,0-2.99-.29-3.85-.8-1.03-.63-1.55-1.6-1.55-2.92v-6.47c0-2.29,1.72-3.49,5.12-3.49h5.62c3.09,0,4.67,1.2,4.67,3.65v1.77h0ZM149.14,13.49v-.23c0-1.03-.88-1.54-2.57-1.54h-3.57c-1.99,0-2.98.57-2.98,1.77v2.62l9.13-2.62Z"/>
          <path class="cls-2" d="M166.54,23.14h-5.78c-1.62,0-2.86-.4-3.8-1.15-1.06-.86-1.56-1.96-1.56-3.34v-9.21h3.42v8.45c0,1.57.81,2.39,2.5,2.39h5.81c.52,0,.81-.29.81-.93v-9.91h3.42v14.82c0,1.36-.41,2.43-1.27,3.28-.87.85-2.03,1.3-3.48,1.3h-10.08v-2.85h9.03c1.08,0,1.76-.27,2.1-.81.23-.38.28-1.02.28-2.05v-.38l-1.42.38Z"/>
        </g>
        <g>
          <path class="cls-3" d="M16.72,33.6C7.53,33.6,0,26.07,0,16.83S7.53,0,16.72,0s16.72,7.53,16.72,16.83-7.47,16.77-16.72,16.77Z"/>
          <g>
            <path class="cls-4" d="M15.97,16.83c0,3.59-2.91,6.56-6.56,6.56s-6.56-2.97-6.56-6.56,2.97-6.62,6.56-6.62,6.56,2.97,6.56,6.62ZM6.33,14.83c-.91,0-1.65.74-1.65,1.65s.74,1.65,1.65,1.65,1.65-.74,1.65-1.65c.06-.86-.68-1.65-1.65-1.65Z"/>
            <path class="cls-4" d="M31.04,16.46c0,.17-1.08,1.14-1.26,1.37,0,0-.68.63-1.14.57-.63-.17-1.08-.57-1.65-.57s-1.03.46-1.03.46c0,0-.34-.46-.97-.46s-.34.63-.91.63-.23-.63-1.03-.63-.86.63-.86.63c0,0-.34-.63-.86-.63s-.46.74-.97.74c-.46,0-.97-1.03-1.37-.57-.29.68-.68.57-1.26.57l-.23.97c0,.11-.29.29-.46.29h0c-.29,0-1.43-1.2-1.43-1.2v-3.71s1.14-1.14,1.43-1.2h0c.17,0,.46.11.46.29l.23,1.08q.06.06.17.06h10.33c.29,0,.68.06,1.31.34.68.17,1.48.8,1.48.97ZM28.76,16.29h-11.41v.57h11.41v-.57Z"/>
          </g>
        </g>
        <text class="cls-1" transform="translate(166.39 5.37)"><tspan x="0" y="0">®</tspan></text>
        <g>
          <path class="cls-5" d="M44.96,38.4l.86-.06c.06.34.11.63.29.86s.4.4.68.57c.34.11.68.23,1.08.23.34,0,.68-.06.97-.17.29-.11.46-.23.63-.46.11-.17.23-.4.23-.63s-.06-.4-.17-.57c-.11-.17-.34-.29-.63-.4-.17-.06-.63-.17-1.26-.34-.63-.17-1.08-.29-1.37-.46-.34-.17-.57-.4-.74-.68-.17-.29-.23-.57-.23-.86,0-.34.11-.68.29-1.03.23-.29.51-.57.91-.68.4-.17.8-.23,1.31-.23s.97.06,1.37.23c.4.17.68.4.91.74s.34.68.34,1.14l-.91.06c-.06-.46-.23-.8-.51-1.03-.29-.23-.68-.34-1.26-.34s-.97.11-1.26.29c-.29.23-.4.46-.4.74,0,.23.11.46.29.63s.63.34,1.43.51c.74.17,1.26.34,1.54.46.4.17.74.46.91.74.17.29.29.63.29,1.03s-.11.74-.34,1.08-.51.57-.91.8c-.4.17-.86.29-1.37.29-.63,0-1.2-.11-1.6-.29-.46-.17-.8-.46-1.03-.86-.23-.4-.34-.8-.34-1.31Z"/>
          <path class="cls-5" d="M55.29,39.22l.91.11c-.11.51-.4.91-.8,1.2s-.86.46-1.48.46c-.74,0-1.37-.23-1.77-.68-.46-.46-.68-1.14-.68-1.94,0-.86.23-1.54.68-2,.46-.46,1.03-.74,1.71-.74s1.26.23,1.65.68c.46.46.63,1.14.63,2v.23h-3.82c.06.57.17.97.46,1.31.29.29.63.46,1.08.46.34,0,.57-.06.8-.23.34-.17.51-.46.63-.86ZM52.37,37.4h2.85c-.06-.46-.17-.74-.34-.97-.29-.34-.63-.51-1.08-.51-.4,0-.74.11-1.03.4-.23.29-.34.63-.4,1.08Z"/>
          <path class="cls-5" d="M60.59,38.8l.86.11c-.11.57-.34,1.03-.74,1.37-.4.34-.86.51-1.43.51-.68,0-1.26-.23-1.71-.68-.4-.46-.63-1.14-.63-2,0-.57.11-1.03.29-1.48.17-.4.46-.74.86-.91.4-.23.8-.29,1.2-.29.57,0,1.03.11,1.37.4s.57.68.68,1.2l-.86.11c-.06-.34-.23-.63-.4-.8-.23-.17-.46-.29-.74-.29-.46,0-.8.17-1.08.46-.29.34-.4.8-.4,1.48s.11,1.2.4,1.48c.29.29.63.46,1.03.46.34,0,.63-.11.86-.34.23,0,.4-.34.46-.8Z"/>
          <path class="cls-5" d="M65.27,40.68v-1.17c-.41.57-.93.86-1.62.86-.29,0-.58-.06-.87-.17-.29-.11-.46-.29-.58-.46s-.23-.4-.29-.63c-.06-.17-.06-.46-.06-.8v-3.19h1.14v3.28c0,.46,0,.74.05.91.06.23.17.4.34.51.17.11.4.17.63.17.29,0,.51-.06.74-.23.23-.11.4-.34.46-.57.11-.23.11-.57.06-1.03v-2.48h.57v5.13h-.57v-.14Z"/>
          <path class="cls-5" d="M67.55,40.82v-5.13h.57v.65c.51-.34.74-.63.91-.74s.34-.17.57-.17c.29,0,.57.11.91.29l-.29.8c-.23-.11-.4-.17-.63-.17-.17,0-.34.06-.51.17-.17.11-.29.29-.34.46-.11.29-.05,1.03-.05,1.03v2.83h-1.14Z"/>
          <path class="cls-5" d="M70.98,34.55v-1.14h1.14v1.14h-1.14ZM70.98,40.82v-5.13h1.14v5.13h-1.14Z"/>
          <path class="cls-5" d="M73.26,40.82v-5.13h.57v.74c.4-.57.91-.86,1.65-.86.29,0,.57.06.86.17s.46.29.57.46.23.4.29.63c.06.17.06.46.06.86v3.14h-1.14v-3.14c0-.34-.05-.63-.11-.8-.05-.17-.16-.34-.32-.4-.16-.11-.37-.17-.58-.17-.32,0-.64.11-.9.34-.27.23-.37.68-.37,1.37v2.8h-.57Z"/>
          <path class="cls-5" d="M78.45,41.13l.86.11c.06.29.11.46.29.57.23.17.51.23.86.23.4,0,.68-.06.91-.23.23-.17.34-.4.46-.68.06-.17.06-.57.06-1.14-.4.46-.86.68-1.43.68-.68,0-1.26-.23-1.65-.74s-.57-1.14-.57-1.83c0-.51.11-.97.29-1.37.17-.4.46-.74.74-.97.34-.23.74-.34,1.2-.34.63,0,1.08.23,1.37.74v-.48h.57v4.31c.34.8.28,1.37.11,1.71-.17.34-.4.57-.8.8-.34.17-.8.29-1.31.29-.63,0-1.08-.11-1.48-.4-.29-.29-.46-.68-.46-1.26ZM79.19,38.05c0,.68.11,1.14.4,1.48.29.29.63.46,1.03.46s.74-.17,1.03-.46c.29-.29.4-.8.4-1.43s-.11-1.08-.4-1.43-.63-.46-1.03-.46-.74.17-.97.46c-.34.29-.46.74-.46,1.37Z"/>
          <path class="cls-5" d="M86.95,40.68v-7.27h5.13v1.14h-3.99v2.28h3.99v.57h-3.99v2.28h3.99v1.14h-5.13v-.14Z"/>
          <path class="cls-5" d="M93.23,40.82v-5.13h1.14v.74c.4-.57.91-.86,1.65-.86.29,0,.57.06.86.17s.46.29.57.46.23.4.29.63c.06.17.06.46.06.86v3.14h-1.14v-3.14c0-.34-.05-.63-.11-.8-.05-.17-.16-.34-.32-.4-.16-.11-.37-.17-.58-.17-.32,0-.64.11-.9.34-.27.23-.37.68-.37,1.37v2.8h-1.14Z"/>
          <path class="cls-5" d="M100.81,39.94l.11.74c-.23.06-.46.06-.63.06-.34,0-.57-.06-.74-.17-.17-.11-.29-.23-.34-.4-.06-.17-.28-1.03-.28-1.03v-2.88h-.57v-.57h.57v-1.46l1.14-.51v1.97h1.14v.57h-1.14v2.94c-.12.23-.12.4-.06.46.06.06.06.11.17.17.06.06.17.06.29.06.06.06.23.06.34.06Z"/>
          <path class="cls-5" d="M104.92,39.22l.91.11c-.11.51-.4.91-.8,1.2s-.86.46-1.48.46c-.74,0-1.37-.23-1.77-.68-.46-.46-.68-1.14-.68-1.94,0-.86.23-1.54.68-2,.46-.46,1.03-.74,1.71-.74s1.26.23,1.65.68c.46.46.63,1.14.63,2v.23h-3.82c.06.57.17.97.46,1.31.29.29.63.46,1.08.46.34,0,.57-.06.8-.23.29-.17.46-.46.63-.86ZM102.35,37.4h2.85c-.06-.46-.17-.74-.34-.97-.29-.34-.63-.51-1.08-.51-.4,0-.74.11-1.03.4-.23.29-.4.63-.4,1.08Z"/>
          <path class="cls-5" d="M106.92,40.82v-5.13h.57v.65c.68-.34.85-.63,1.02-.74s.34-.17.57-.17c.29,0,.57.11.91.29l-.29.8c-.23-.11-.4-.17-.63-.17-.17,0-.34.06-.51.17-.17.11-.29.29-.34.46-.11.29-.17,1.03-.17,1.03v2.83h-1.14Z"/>
          <path class="cls-5" d="M110.34,42.67v-6.99h.57v.54c.51-.29.74-.46.97-.57.23-.11.51-.17.86-.17.46,0,.8.11,1.14.34.34.23.57.57.74.97.17.4.23.86.23,1.37s-.11,1.03-.29,1.43-.46.74-.8.97c-.34.23-.74.34-1.14.34-.29,0-.57-.06-.8-.17-.23-.11-.4-.29-.91-.46v2.83h-.57v-.43ZM111.25,38.17c0,.68.11,1.14.4,1.48s.57.46.97.46.74-.17.97-.51c.29-.34.4-.86.4-1.54,0-.63-.11-1.14-.4-1.48-.29-.34-.57-.51-.97-.51-.34,0-.68.17-.97.51-.29.4-.4.91-.4,1.6Z"/>
          <path class="cls-5" d="M116.05,40.82v-5.13h.57v.65c.34-.34.51-.63.68-.74s.34-.17.57-.17c.29,0,.57.11.91.29l-.29.8c-.23-.11-.4-.17-.63-.17-.17,0-.34.06-.51.17-.17.11-.29.29-.34.46-.11.29.17,1.03.17,1.03v2.83h-1.14Z"/>
          <path class="cls-5" d="M118.9,34.55v-1.14h1.14v1.14h-1.14ZM118.9,40.82v-5.13h1.14v5.13h-1.14Z"/>
          <path class="cls-5" d="M121.06,39.19l.86-.11c.06.34.17.63.4.8s.51.29.91.29.68-.06.91-.23c.17-.17.29-.34.29-.57,0-.17-.06-.34-.23-.46-.11-.06-.4-.17-.91-.29-.63-.17-1.08-.29-1.31-.4-.23-.11-.46-.29-.57-.51s-.17-.46-.17-.68.06-.46.17-.63c.11-.17.23-.34.4-.51.11-.11.34-.17.57-.23.23-.06.46-.11.74-.11.4,0,.74.06,1.08.17.29.11.51.29.68.46s.23.46.29.8l-.86.11c-.06-.29-.17-.46-.34-.63-.17-.17-.46-.23-.8-.23-.4,0-.68.06-.86.17s-.23.29-.23.46c0,.11.06.23.11.29.06.11.17.17.34.23.11.06.34.11.74.23.63.17,1.03.29,1.31.4.23.11.46.29.57.46.11.23.23.46.23.74s-.06.57-.23.8-.4.46-.74.57-.68.23-1.08.23c-.68,0-1.2-.11-1.54-.4-.4-.29-.63-.68-.74-1.2Z"/>
          <path class="cls-5" d="M130.02,39.22l.91.11c-.11.51-.4.91-.8,1.2s-.86.46-1.48.46c-.74,0-1.37-.23-1.77-.68-.46-.46-.68-1.14-.68-1.94,0-.86.23-1.54.68-2,.46-.46,1.03-.74,1.71-.74s1.26.23,1.65.68c.46.46.63,1.14.63,2v.23h-3.82c.06.57.17.97.46,1.31.29.29.63.46,1.08.46.34,0,.57-.06.8-.23.34-.17.51-.46.63-.86ZM127,37.4h2.85c-.06-.46-.17-.74-.34-.97-.29-.34-.63-.51-1.08-.51-.4,0-.74.11-1.03.4-.23.29-.34.63-.4,1.08Z"/>
          <path class="cls-5" d="M134.87,40.82v-6.85h2.37c.55,0,.94.06,1.21.11.39.11.72.28.99.5.39.33.61.72.83,1.16.17.5.28.99.28,1.66,0,.5-.06.99-.17,1.38s-.28.72-.44.99-.39.5-.61.61c-.22.17-.5.28-.83.33s-.66.11-1.1.11h-2.54ZM135.5,39.68h1.41c.43,0,.81-.05,1.03-.11s.43-.22.59-.32c.22-.22.38-.49.49-.86s.16-.81.16-1.3c0-.7-.11-1.24-.32-1.62-.22-.38-.49-.65-.86-.76-.22-.11-.59-.16-1.14-.16h-1.41v5.13h.05Z"/>
          <path class="cls-5" d="M145.08,40.05c-.34.29-.63.46-.91.57s-.63.17-.97.17c-.57,0-.97-.11-1.31-.4-.29-.29-.46-.63-.46-1.08,0-.23.06-.46.17-.68.11-.23.29-.4.46-.51.17-.11.4-.23.63-.29.17-.06.46-.11.8-.11.68-.06,1.2-.17,1.66-.29v-.23c-.12-.34-.17-.63-.34-.74-.23-.17-.57-.29-.97-.29s-.68.06-.91.23c-.17.17-.34.4-.46.74l-.86-.11c.06-.34.23-.68.4-.86.17-.23.46-.4.74-.51.34-.11.74-.17,1.14-.17.46,0,.8.06,1.08.17s.46.23.63.4c.11.17.23.34.29.57,0,.17.06.4.4.8v1.14c-.34.8-.34,1.31-.29,1.54.06.23.11.4.23.71h-.91c-.17-.32-.23-.49-.23-.77ZM145.14,38.11c-.34.11-.8.23-1.43.34-.34.06-.63.11-.74.17-.17.06-.29.17-.34.29s-.11.29-.11.4c0,.23.11.4.29.57s.46.23.74.23c.34,0,.63-.06.91-.23s.46-.34.57-.63c.11-.17.11-.51.11-.86v-.29Z"/>
          <path class="cls-5" d="M149.13,39.94l.11.74c-.23.06-.46.06-.68.06-.34,0-.57-.06-.74-.17-.17-.11-.29-.23-.34-.4-.06-.17-.05-1.03-.05-1.03v-2.88h-.57v-.57h.57v-1.46l1.14-.51v1.97h.57v.57h-.57v2.94c-.34.23-.34.4-.29.46.06.06.06.11.17.17.06.06.17.06.29.06.11.06.23.06.4.06Z"/>
          <path class="cls-5" d="M153.3,40.05c-.34.29-.63.46-.91.57s-.63.17-.97.17c-.57,0-.97-.11-1.31-.4-.29-.29-.46-.63-.46-1.08,0-.23.06-.46.17-.68.11-.23.29-.4.46-.51.17-.11.4-.23.63-.29.17-.06.46-.11.8-.11.68-.06,1.2-.17,1.43-.29v-.23c.11-.34.05-.63-.12-.74-.23-.17-.57-.29-.97-.29s-.68.06-.91.23c-.17.17-.34.4-.46.74l-.86-.11c.06-.34.23-.68.4-.86.17-.23.46-.4.74-.51.34-.11.74-.17,1.14-.17.46,0,.8.06,1.08.17s.46.23.63.4c.11.17.23.34.29.57,0,.17.06.4.17.8v1.14c-.12.8-.12,1.31-.06,1.54.06.23.11.4.23.71h-.97c-.11-.32-.17-.49-.17-.77ZM153.13,38.11c-.34.11-.8.23-1.43.34-.34.06-.63.11-.74.17-.17.06-.29.17-.34.29s-.11.29-.11.4c0,.23.11.4.29.57s.46.23.74.23c.34,0,.63-.06.91-.23s.46-.34.57-.63c.11-.17.11-.51.11-.86v-.29Z"/>
        </g>
      </g>
    </g>
  </g>
</svg>