<?xml version="1.0" encoding="UTF-8"?>
<svg id="Layer_2" data-name="Layer 2" xmlns="http://www.w3.org/2000/svg" xmlns:xlink="http://www.w3.org/1999/xlink" viewBox="0 0 196.04 28.26">
  <defs>
    <style>
      .cls-1, .cls-2, .cls-3, .cls-4 {
        stroke-width: 0px;
      }

      .cls-2 {
        fill: none;
      }

      .cls-5 {
        clip-path: url(#clippath-1);
      }

      .cls-3 {
        fill: #fff;
      }

      .cls-6 {
        clip-path: url(#clippath);
      }

      .cls-4 {
        fill: #04b0e1;
      }
    </style>
    <clipPath id="clippath">
      <rect class="cls-2" y="0" width="195.75" height="28.26"/>
    </clipPath>
    <clipPath id="clippath-1">
      <rect class="cls-2" y="0" width="195.75" height="28.26"/>
    </clipPath>
  </defs>
  <g id="PC">
    <g id="Agenda">
      <g>
        <g id="mask0_2001_4939" data-name="mask0 2001 4939">
          <path class="cls-3" d="M195.75,0H0v28.26h195.75V0Z"/>
        </g>
        <g class="cls-6">
          <g class="cls-5">
            <g>
              <path class="cls-1" d="M37.68,7.33v14.65h-4.19V7.33h4.19Z"/>
              <path class="cls-1" d="M39.55,21.98l2.48-14.65h3.72l2.89,7.84,2.89-7.84h3.72l2.48,14.65h-3.72l-1.24-8.46-3.41,8.46h-1.55l-3.3-8.46-1.24,8.46h-3.72Z"/>
              <path class="cls-1" d="M59.34,21.98l2.48-14.65h3.72l2.89,7.84,2.89-7.84h3.72l2.48,14.65h-3.82l-1.24-8.46-3.41,8.46h-1.55l-3.3-8.46-1.24,8.46h-3.61Z"/>
              <path class="cls-1" d="M86.88,10.47h-4.19v2.09h4.19v3.14h-4.19v2.09h4.19v4.19h-8.37V7.33h8.37v3.14Z"/>
              <path class="cls-1" d="M103.15,21.98h-5.09l-3.85-5.68v5.68h-4.19V7.33h6.45c.79,0,1.58.1,2.38.41.57.21,1.13.52,1.58.93.45.41.79.93,1.02,1.44.23.52.34,1.14.34,1.75,0,.93-.23,1.96-.91,2.68-.68.72-1.58,1.24-2.6,1.44l4.87,5.99ZM93.16,13.61h1.11c.63-.08,1.26-.19,1.67-.5.21-.21.31-.42.42-.63.1-.21.1-.52.1-.73,0-.31,0-.52-.1-.73s-.21-.42-.42-.63c-.52-.31-1.15-.52-1.67.08h-1.11v3.14Z"/>
              <path class="cls-1" d="M110.92,10.6c-.31-.31-.73-.52-1.15-.73s-.73-.21-1.15-.21-.84.1-1.15.31c-.21.21-.42.42-.42.73s0,.63.21.84.42.31.63.42l.84.31.94.21c1.05.31,1.88.84,2.62,1.67.63.73.84,1.67.84,2.72,0,.63-.1,1.36-.31,1.99-.21.63-.63,1.15-1.05,1.57-.52.42-1.15.84-1.78.94-.73.31-1.57.42-2.3.42-1.78,0-3.56-.52-5.02-1.67l1.57-3.04c.52.42,1.05.84,1.67,1.05.52.21,1.05.42,1.57.42.21,0,.52,0,.73-.1s.42-.21.63-.42c.1-.1.21-.21.31-.42.1-.21.1-.31.1-.52s0-.42-.1-.52c-.1-.21-.21-.31-.42-.42-.21-.21-.42-.31-.73-.42l-1.05-.42-1.47-.52c-.42-.1-.84-.42-1.26-.73-.42-.31-.63-.73-.84-1.15-.21-.52-.31-1.15-.31-1.78s.1-1.36.31-1.99c.21-.63.52-1.15.94-1.57.42-.42.94-.73,1.57-.94.63-.21,1.36-.31,2.09-.31s1.47.1,2.2.31c.73.21,1.57.52,2.2.94l-1.47,3.04Z"/>
              <path class="cls-4" d="M194.03,10.6c-.42-.31-.84-.52-1.26-.73s-.73-.21-1.15-.21-.84.1-1.15.31c-.1.1-.31.21-.31.42-.1.1-.1.31-.1.52s.1.42.21.63c.21.21.42.31.63.42l.84.31.84.21c1.05.31,1.88.84,2.62,1.67.63.73.94,1.67.84,2.72,0,.73-.1,1.36-.42,1.99-.21.63-.63,1.15-1.05,1.57-.52.42-1.05.84-1.67.94-.73.31-1.57.42-2.41.42-1.78,0-3.56-.63-5.02-1.67l1.67-3.04c.52.42,1.05.84,1.67,1.05.52.21,1.05.42,1.67.42.21,0,.52,0,.73-.1s.42-.21.63-.31c.1-.1.21-.21.31-.42.1-.21.1-.31.1-.52s0-.42-.1-.52c-.1-.21-.21-.31-.42-.42-.21-.21-.42-.31-.73-.42l-1.05-.42-1.36-.52c-.42-.1-.94-.42-1.26-.73-.42-.31-.73-.73-.84-1.15-.21-.52-.42-1.15-.31-1.78,0-.63.1-1.36.31-1.99.21-.52.52-1.05.94-1.57.42-.42,1.05-.73,1.57-.94.63-.21,1.36-.42,2.09-.31.73,0,1.47.1,2.2.31.73.21,1.47.52,2.2.94l-1.47,2.93Z"/>
              <path class="cls-1" d="M118.29,7.33v14.65h-4.19V7.33h4.19Z"/>
              <path class="cls-1" d="M123.74,7.33l3.51,8.88,3.51-8.88h4.13l-6.09,14.65h-2.99l-6.09-14.65h4.02Z"/>
              <path class="cls-1" d="M144.46,10.47h-4.19v2.09h4.19v3.14h-4.19v2.09h4.19v4.19h-8.37V7.33h8.37v3.14Z"/>
              <path class="cls-4" d="M150.74,7.33v11.51h4.19v3.14h-8.37V7.33h4.19Z"/>
              <path class="cls-4" d="M173.77,7.33h5.5c1.12-.1,2.14.31,2.95.92.31.41.61.81.81,1.32s.2,1.02.2,1.53c0,.61-.1,1.22-.41,1.83-.31.51-.71.92-1.22,1.22.51.1.92.2,1.42.51.31.2.71.41.92.81.2.31.41.61.51,1.02s.1.81.1,1.22c0,.61-.1,1.22-.31,1.83-.2.51-.61.92-1.02,1.32s-.92.71-1.53.81c-.61.2-1.32.31-2.04.31h-5.9V7.33ZM177.95,12.56h.79c1.23,0,1.91-.56,1.91-1.57s-.67-1.57-1.91-1.57h-.79v3.14ZM177.86,18.84h.76c.67,0,1.33-.1,1.9-.42.19-.1.29-.31.38-.42.1-.21.19-.31.19-.52v-.63c0-.21-.1-.42-.19-.52-.1-.1-.19-.21-.29-.31-.57-.31-1.24-.42-1.9-.31h-.76v3.14h-.1Z"/>
              <path class="cls-4" d="M167.08,7.33h-4.7l-5.47,14.65h4.29v-.2l2.34-6.18-.74-1.99h4.04l-.64,1.99,2.34,6.18v.2h3.95l-5.4-14.65Z"/>
              <path class="cls-4" d="M0,0v28.26h28.26V0H0Z"/>
              <path class="cls-3" d="M23.03,21.98h-8.37v-11.39l4.19-3.77v12.02h4.19v3.14Z"/>
              <path class="cls-3" d="M12.56,21.98h-4.19V7.22h0l4.19,3.77v10.99Z"/>
            </g>
          </g>
        </g>
      </g>
    </g>
  </g>
</svg>