<?xml version="1.0" encoding="UTF-8"?>
<svg id="Layer_2" data-name="Layer 2" xmlns="http://www.w3.org/2000/svg" viewBox="0 0 327.33 61.18">
  <defs>
    <style>
      .cls-1 {
        fill: #00a88e;
        stroke-width: 0px;
      }
    </style>
  </defs>
  <g id="PC">
    <g id="Agenda">
      <g id="Layer_1-2" data-name="Layer 1-2">
        <path class="cls-1" d="M147.62,30.48c0,12.27-7.49,18.05-16.82,18.05h-6.32v-6.33h5.41c5.7.04,9.54-3.04,9.54-10.8s-3.61-11.52-9.71-11.52-9.46,11.37-9.46,11.37v29.94h-8.44V12.66h8.44v4.22h1.1c2.47-3.26,6.36-5.14,10.46-5.03,8.61,0,15.8,6.24,15.8,18.63ZM95.53,27.49l-5.37-.54c-4.23-.39-6.45-1.53-6.45-3.98,0-2.92,2.84-4.62,6.9-4.62s6.9,2,7.14,4.86h7.74c-.3-7.22-5.89-11.67-14.79-11.67s-15.05,4.75-15.05,11.74c0,5.83,3.68,9.59,12.04,10.45l5.46.54c3.29.3,5.52.99,5.52,4.13,0,2.86-2.06,4.92-7.52,4.92-5.01,0-7.48-2.28-8.36-5.33h-8.38c.86,6.99,6.71,12.4,16.77,12.4,9.42,0,15.56-5.01,15.56-12.36,0-6.54-4.3-9.82-11.2-10.53ZM177.39,37.98c-1.23,2.81-4.17,4.94-8.32,4.94-5.73,0-9.97-3.71-9.97-11.76s3.94-11.9,10.05-11.9c5.42,0,8.55,3.27,8.86,8.17h-13.45v6.33h21.1v-4.39c0-10.34-6.84-17.03-16.59-17.03-9.07,0-17.78,6.17-17.78,18.83s8.71,18.85,17.78,18.85c7.51.25,14.18-4.75,16.05-12.03h-7.73ZM55.3,12.66c-7.98,0-13.96,4.17-14.66,10.55h5.34s2.95-3.71,7.38-3.71c5.72,0,7.6,3.02,7.82,6.71v12.43c-3.45,3.69-7.23,5.42-10.98,5.42s-6.62-1.9-6.62-5.27,2.11-5.27,6.16-5.02h7.23v-6.33h-6.6c-9.13,0-14.22,4.56-14.22,11.54,0,6.54,4.94,11.5,13.07,11.5,4.19-.09,8.24-1.49,11.56-4.04h.41v2.11h8.44v-23.92c0-8.27-5.62-11.95-14.31-11.95h-.02ZM0,50.64h8.44V0H0v50.64h0ZM33.74,12.66h-9.6l-11.47,14.96v4.69l11.77,16.21h9.75l-13.79-18.57,13.36-17.26v-.04h-.02ZM318.67,12.66l-6.4,14.21c-1.44,2.87-2.6,5.9-3.48,9h-1.12c-.44-2.23-2-5.5-3.56-8.92l-6.4-14.29h-8.66s15.03,32.29,15.03,32.29l-7.43,16.24h8.35l22.33-48.53h-8.66s0,0,0,0ZM286.74,12.66h-9.52l-11.38,14.96v4.69l11.67,16.21h9.67l-13.69-18.59,13.25-17.28h0ZM237.66,27.5l-5.37-.54c-4.21-.39-6.44-1.52-6.44-3.97,0-2.92,2.83-4.62,6.89-4.62s6.91,2,7.13,4.83h7.73c-.28-7.19-5.88-11.63-14.77-11.63s-15.03,4.72-15.03,11.72c0,5.82,3.69,9.57,12.02,10.41l5.45.54c3.31.32,5.52,1.01,5.52,4.14,0,2.83-2.06,4.92-7.51,4.92-5,0-7.47-2.28-8.35-5.32h-8.37c.86,6.95,6.7,12.36,16.74,12.36,9.4,0,15.54-4.98,15.54-12.34,0-6.5-4.29-9.81-11.18-10.5ZM253.18,50.64h8.44V0h-8.44v50.66h0v-.02ZM202.54,18.99h-2.11v-6.33h-8.44v35.87h8.44v-17.82c0-6.06,3.19-9.6,9.45-9.6h5.32v-8.44h-3.62c-5.49-.17-9.87,4.22-9.87,4.22h.84v2.11Z"/>
      </g>
    </g>
  </g>
</svg>