<?xml version="1.0" encoding="UTF-8"?>
<svg id="Layer_2" data-name="Layer 2" xmlns="http://www.w3.org/2000/svg" viewBox="0 0 971.71 193.16">
  <defs>
    <style>
      .cls-1 {
        fill: #546892;
      }

      .cls-1, .cls-2, .cls-3, .cls-4, .cls-5, .cls-6, .cls-7, .cls-8, .cls-9, .cls-10 {
        stroke-width: 0px;
      }

      .cls-2 {
        fill: #ccd7e9;
      }

      .cls-3 {
        fill: #a4bada;
      }

      .cls-11 {
        fill: none;
        stroke: #807f83;
        stroke-width: 4.37px;
      }

      .cls-4 {
        fill: #dbe2ef;
      }

      .cls-5 {
        fill: #174a7c;
      }

      .cls-6 {
        fill: #91add2;
      }

      .cls-7 {
        fill: #98b1d5;
      }

      .cls-8 {
        fill: #85a5cd;
      }

      .cls-9 {
        fill: #7399c6;
      }

      .cls-10 {
        fill: #becde4;
      }
    </style>
  </defs>
  <g id="PC">
    <g id="Agenda">
      <g>
        <path class="cls-8" d="M31.87,127.9c.27-11.9,4.15-23.43,11.3-33.26-1.64-9.94-1.53-20.26.49-30.47.93-4.81,2.29-9.45,3.99-13.87-10.27,4.42-19.33,11.25-26.49,20.26-.33.44-.66.87-.98,1.26-6.66,19.39-1.97,40.85,11.69,56.03"/>
        <path class="cls-10" d="M2.06,77.38c-.44,2.08-.93,4.53-1.2,6.61-.27,2.13-.49,4.26-.66,6.33-.6,9.39.16,18.68,2.18,27.52.11.33.16.71.22,1.04.93,3.77,2.02,7.48,3.39,11.14.11.27.22.55.33.82,3.28,8.57,6.88,14.36,9.23,17.97-10.81-18.29-12.45-40.58-4.7-60.51.05-.16.11-.33.22-.49.27-.66.55-1.31.82-1.91.27-.55.49-1.09.76-1.64.11-.16.16-.33.27-.49,1.2-2.51,2.57-4.97,4.1-7.32,1.04-1.58,2.08-3.17,3.28-4.64.33-.44.66-.87.98-1.26,7.15-8.96,16.27-15.84,26.49-20.26.33-.76.6-1.53.93-2.29s.66-1.53.98-2.35c.6-1.31,1.26-2.62,1.91-3.93.38-.82.82-1.58,1.26-2.35.44-.76.87-1.53,1.31-2.29-9.99,2.46-19.39,6.77-27.91,12.94-9.99,7.21-18.19,16.55-24.03,27.3l-.16.05Z"/>
        <path class="cls-10" d="M52.41,48.49c-.82.27-1.58.6-2.4.87-.82.33-1.58.6-2.35.93-1.69,4.48-3.06,9.07-3.99,13.87-2.02,10.21-2.13,20.53-.49,30.47.55-.71,1.04-1.37,1.58-2.08.16-.22.33-.38.49-.6.38-.44.76-.87,1.15-1.31-1.04-8.46-.76-17.15.98-25.72,1.15-5.73,2.89-11.2,5.13-16.44"/>
        <path class="cls-6" d="M31.87,130.63v-2.73c-13.65-15.18-18.4-36.7-11.69-56.03-1.15,1.53-2.29,3.06-3.28,4.64-1.53,2.35-2.89,4.81-4.1,7.32.38-.82.82-1.64,1.26-2.46-2.73,18.95,3.88,38.39,17.97,52.04-.05-.93-.11-1.86-.16-2.79"/>
        <path class="cls-9" d="M14.07,81.31c-.44.82-.87,1.58-1.26,2.46-.11.16-.16.33-.27.49-.27.55-.49,1.09-.76,1.64-.27.66-.55,1.26-.82,1.91-.05.16-.11.33-.22.49-4.1,10.38-5.68,21.63-4.42,33.04,1.2,10.81,4.81,20.81,10.27,29.49,2.79,4.1,5.84,7.92,9.17,11.58,1.86,1.86,3.77,3.66,5.9,5.35,5.41,4.37,11.3,7.81,17.53,10.32.11,0,.16.05.27.11.82.33,1.58.6,2.4.87.38.16.76.27,1.2.44.49.16.98.33,1.53.49.49.16.93.27,1.37.44.49.11.93.27,1.42.38.38.11.76.16,1.15.27.55.16,1.09.27,1.69.38.22.05.49.11.71.16,1.58.33,3.22.6,4.86.82-18.35-8.74-31.4-26.38-33.59-46.8-.11-.71-.11-1.42-.22-2.13-14.09-13.65-20.7-33.15-17.97-52.04"/>
        <path class="cls-1" d="M106.74.6c-1.86-.22-3.71-.38-5.57-.44-19.77,5.9-36.59,19.28-47.13,37.03.82-.22,1.64-.38,2.51-.55.82-.22,1.69-.33,2.57-.49C71.14,17.75,90.36,4.81,112.53,1.37c-1.91-.33-3.82-.6-5.73-.82"/>
        <path class="cls-2" d="M143.11,104.41c-.27-1.8-.6-3.6-.98-5.41-.38-1.69-.82-3.39-1.31-5.08-2.35-3.17-5.02-6.06-7.92-8.68.11.87.16,1.75.27,2.62.05.87.11,1.75.16,2.68.38,13.65-3.93,27.3-12.78,38.34-8.85,11.03-21.24,18.35-34.95,20.92,6.99,3.88,14.53,6.72,22.61,8.3,4.91.98,9.88,1.47,14.8,1.47,1.26,0,2.51-.05,3.77-.11.66-.76,1.31-1.53,1.97-2.35,12.29-15.29,16.93-34.46,14.47-52.7"/>
        <path class="cls-10" d="M77.14,148.81c-.87-.6-1.69-1.2-2.51-1.8-7.32-5.57-13.76-12.45-19-20.42-5.46-8.41-9.34-17.53-11.52-27.03-.22-.82-.38-1.64-.55-2.46-.16-.82-.33-1.64-.49-2.46-7.15,9.78-11.03,21.3-11.3,33.26v2.73c0,.93.11,1.8.16,2.79.66.6,1.31,1.2,1.91,1.8.66.6,1.31,1.15,2.02,1.69.11.11.27.22.38.33,10.81,8.74,24.41,13.54,38.23,13.54,1.69,0,3.39-.11,5.08-.22-.87-.55-1.69-1.09-2.57-1.69"/>
        <path class="cls-5" d="M59.07,36.1c4.59-.82,9.23-1.26,13.98-1.26,44.89,0,81.37,37.41,81.37,83.33,0,13.49-3.17,26.38-8.9,37.84,18.02-5.62,33.75-17.37,43.85-34.08l.27-.44c2.02-7.92,3.17-16.27,3.17-24.85,0-47.84-34.79-87.65-80.28-95.29-22.17,3.44-41.39,16.38-53.46,34.73Z"/>
        <path class="cls-5" d="M2.06,77.38c5.9-10.76,14.09-20.04,24.03-27.3,8.52-6.17,17.97-10.54,27.91-12.94C64.58,19.39,81.35,6.06,101.12.11c-1.58-.11-3.17-.11-4.7-.11C50.33,0,11.01,33.09,2.06,77.38Z"/>
        <path class="cls-10" d="M126.08,67.55c-1.37-1.64-2.95-3.11-4.53-4.59,3.5,5.9,5.84,12.23,7.1,18.73.76.55,1.47,1.15,2.18,1.75.71.6,1.42,1.15,2.08,1.8-.49-4.37-1.47-8.68-2.95-12.89l-3.93-4.75h0l.05-.05Z"/>
        <path class="cls-4" d="M108.16,158.04c-8.03-1.58-15.62-4.42-22.61-8.3-.93.16-1.91.33-2.89.49-.98.16-1.97.27-3,.33,8.36,5.41,17.75,9.17,27.74,11.2,5.13,1.04,10.32,1.53,15.56,1.53h.16c.66-.6,1.26-1.26,1.86-1.91.6-.66,1.15-1.26,1.75-1.91-1.26.05-2.51.11-3.77.11-4.97,0-9.94-.49-14.8-1.47"/>
        <path class="cls-3" d="M46.34,90.65c10.05-11.58,23.92-18.84,39.32-20.59,2.24-.27,4.53-.38,6.77-.38,13.27,0,25.94,4.37,36.15,11.96-1.2-6.5-3.55-12.83-7.1-18.73-12.34-11.41-28.78-18.35-46.58-18.35-2.51,0-5.08.16-7.59.44-5.19.55-10.21,1.69-14.96,3.39-2.24,5.19-3.99,10.7-5.13,16.44-1.69,8.63-1.97,17.31-.98,25.72"/>
        <path class="cls-7" d="M132.9,85.25c2.89,2.62,5.57,5.52,7.92,8.68-2.29-7.65-5.9-14.96-10.87-21.57,1.47,4.26,2.46,8.57,2.95,12.89Z"/>
        <path class="cls-1" d="M186.91,130.24c-.16.38-.27.76-.44,1.09.49-1.37.98-2.68,1.42-4.1.6-1.86,1.2-3.82,1.69-5.79l-.16.27c-10.49,17.15-25.94,28.67-43.96,34.3-.38.76-.82,1.53-1.2,2.35-.44.76-.82,1.47-1.26,2.24,16.33-4.31,33.31-16.38,43.85-30.42"/>
        <path class="cls-5" d="M143.06,160.61c-7.65,13.22-18.95,24.41-32.6,31.67,2.62-.27,5.3-.87,7.92-1.42,6.99-1.58,13.71-3.93,19.99-6.94,14.03-6.83,26.87-17.37,36.32-30.42,5.13-7.1,6.33-9.07,11.9-22.17.16-.38.27-.76.44-1.09-10.59,14.03-27.52,26.1-43.85,30.42"/>
        <path class="cls-10" d="M140.55,161.21c-.82.22-1.69.38-2.51.55-3.17.6-6.33,1.04-9.56,1.26-.93.05-1.8.11-2.73.16-.87,0-1.75.05-2.68.05-12.18,11.9-28.18,18.9-45.38,19.6-.98.05-1.91.11-2.89.11-1.09,0-2.13,0-3.22-.11-1.97-.11-3.88-.27-5.84-.55h0c-1.64-.22-3.28-.49-4.86-.82-.22-.05-.49-.11-.71-.16-.6-.16-1.15-.27-1.69-.38-.38-.11-.76-.16-1.15-.27-.49-.16-.93-.27-1.42-.38-.49-.16-.93-.27-1.37-.44-.49-.16-1.04-.33-1.53-.49-.44-.16-.82-.27-1.2-.44-.82-.27-1.58-.6-2.4-.87-.11,0-.16-.05-.27-.11-8.74-3.5-16.6-8.74-23.15-15.29,5.08,5.41,10.81,10.32,17.09,14.47.22.16.44.27.6.44,3.39,2.18,6.88,4.2,10.54,5.95.16.11.38.16.55.27,7.1,3.39,14.74,5.95,22.77,7.54,6.17,1.2,12.51,1.86,18.79,1.86.93,0,1.86,0,2.84-.05,1.91-.05,3.88-.16,5.79-.33,2.02-.16,3.33-.27,5.46-.55,13.65-7.26,24.9-18.46,32.55-31.67-.82.22-1.64.44-2.51.6"/>
        <path class="cls-7" d="M122.96,163.23c-5.19,0-10.43-.55-15.56-1.53-10.05-1.97-19.39-5.79-27.74-11.2-1.69.16-3.39.22-5.08.22-13.76,0-27.36-4.81-38.23-13.54-.16-.11-.27-.22-.38-.33-.71-.55-1.37-1.15-2.02-1.69-.66-.6-1.31-1.2-1.91-1.8.05.71.11,1.42.22,2.13,2.24,20.42,15.24,38.06,33.59,46.8,1.91.27,3.88.44,5.84.55,1.09.05,2.13.11,3.22.11.98,0,1.91,0,2.89-.11,17.15-.71,33.26-7.65,45.38-19.6h-.22Z"/>
        <path class="cls-5" d="M244.09,43.41c0-.44.22-.66.6-.66h7.37c.49,0,.87.22.98.66l10.81,24.25h.27l10.59-24.25c.16-.44.49-.66.98-.66h7.26c.44,0,.6.22.6.66v41.23c0,.44-.22.6-.6.6h-7.04c-.44,0-.6-.22-.6-.6v-23.92h-.27l-7.86,17.91c-.27.55-.66.82-1.2.82h-4.31c-.55,0-.93-.27-1.2-.82l-7.86-17.91h-.27v23.92c0,.44-.22.6-.66.6h-7.04c-.44,0-.6-.22-.6-.6v-41.23h.05Z"/>
        <path class="cls-5" d="M303.18,43.41c.16-.44.38-.66.82-.66h7.86c.44,0,.71.22.82.66l14.36,41.23c.11.44,0,.6-.44.6h-8.08c-.44,0-.71-.22-.82-.6l-2.46-7.43h-14.85l-2.4,7.43c-.16.44-.44.6-.82.6h-8.19c-.44,0-.55-.22-.44-.6l14.58-41.23h.05ZM312.68,69.41l-4.81-14.85h-.22l-4.81,14.85h9.83Z"/>
        <path class="cls-5" d="M331.95,43.41c0-.44.22-.66.6-.66h7.43c.44,0,.82.22,1.09.66l15.02,26.76h.33v-26.76c0-.44.22-.66.6-.66h7.04c.44,0,.6.22.6.66v41.23c0,.44-.22.6-.6.6h-7.37c-.44,0-.82-.22-1.09-.6l-15.13-26.65h-.33v26.65c0,.44-.22.6-.6.6h-7.04c-.44,0-.6-.22-.6-.6v-41.23h.05Z"/>
        <path class="cls-5" d="M372.8,43.41c0-.44.22-.66.66-.66h7.43c.49,0,.82.22,1.09.66l15.02,26.76h.33v-26.76c0-.44.22-.66.6-.66h7.04c.44,0,.6.22.6.66v41.23c0,.44-.22.6-.6.6h-7.37c-.44,0-.82-.22-1.09-.6l-15.13-26.65h-.33v26.65c0,.44-.22.6-.66.6h-7.04c-.44,0-.66-.22-.66-.6v-41.23h.11Z"/>
        <path class="cls-5" d="M425.17,43.41c.16-.44.38-.66.82-.66h7.86c.44,0,.71.22.82.66l14.36,41.23c.16.44,0,.6-.44.6h-8.08c-.44,0-.71-.22-.82-.6l-2.46-7.43h-14.85l-2.4,7.43c-.16.44-.38.6-.82.6h-8.19c-.44,0-.55-.22-.44-.6l14.58-41.23h.05ZM434.73,69.41l-4.81-14.85h-.22l-4.81,14.85s9.83,0,9.83,0Z"/>
        <path class="cls-5" d="M454.55,42.81h7.92c.33,0,.66.27.66.66v41.23c0,.33-.27.6-.6.6h-7.97c-.33,0-.6-.27-.6-.6v-41.23c0-.33.27-.66.66-.66h-.05Z"/>
        <path class="cls-5" d="M494.64,85.25c-.44,0-.66-.22-.66-.6v-33.31s-.11-.38-.38-.38h-10.7c-.44,0-.66-.22-.66-.6v-6.94c0-.44.22-.66.66-.66h31.4c.44,0,.66.22.66.66v6.94c0,.44-.22.6-.66.6h-10.76s-.38.16-.38.38v33.31c0,.44-.22.6-.66.6h-7.92.05Z"/>
        <path class="cls-5" d="M543.57,85.25c-.49,0-.76-.22-.93-.6l-7.26-15.51h-5.68s-.38.16-.38.38v15.18c0,.44-.22.6-.66.6h-7.92c-.44,0-.66-.22-.66-.6v-41.23c0-.44.22-.66.66-.66h16.93c2.13,0,4.1.33,5.9.98,1.75.66,3.28,1.53,4.53,2.73,1.26,1.15,2.29,2.57,2.95,4.2.71,1.64,1.04,3.39,1.04,5.3,0,2.73-.66,5.13-1.97,7.21-1.31,2.08-3.17,3.55-5.57,4.64l8.36,16.77s.05.38,0,.55c-.05.16-.22.22-.44.22h-8.9v-.16ZM537.12,61.33c1.75,0,3.17-.49,4.15-1.42,1.04-.98,1.53-2.29,1.53-3.88s-.55-2.89-1.53-3.82c-1.04-.98-2.46-1.42-4.15-1.42h-7.48s-.38.16-.38.38v9.83s.11.38.38.38h7.48v-.05Z"/>
        <path class="cls-5" d="M570.49,43.41c.11-.44.38-.66.82-.66h7.86c.44,0,.71.22.82.66l14.36,41.23c.11.44,0,.6-.44.6h-8.08c-.44,0-.71-.22-.82-.6l-2.4-7.43h-14.85l-2.35,7.43c-.16.44-.38.6-.82.6h-8.19c-.44,0-.55-.22-.44-.6l14.58-41.23h-.05ZM580.05,69.41l-4.81-14.85h-.22l-4.81,14.85s9.83,0,9.83,0Z"/>
        <path class="cls-5" d="M599.27,43.41c0-.44.16-.66.6-.66h15.78c3.71,0,6.83.82,9.39,2.4,2.51,1.58,4.26,3.93,5.3,7.15.16.6.33,1.2.49,1.86.16.66.27,1.42.38,2.29.11.87.22,1.91.22,3.11.05,1.2.05,2.68.05,4.42s0,3.22-.05,4.48c0,1.2-.11,2.24-.22,3.11-.11.87-.22,1.64-.38,2.29s-.33,1.26-.49,1.8c-1.04,3.22-2.84,5.57-5.3,7.15-2.51,1.58-5.62,2.4-9.39,2.4h-15.78c-.44,0-.6-.22-.6-.6v-41.23ZM608.5,76.73s.11.38.38.38h4.81c2.13,0,3.82-.33,5.13-1.04,1.31-.71,2.24-1.91,2.73-3.66.11-.27.22-.66.33-1.04.05-.38.16-.93.22-1.53.05-.6.11-1.42.16-2.35v-6.88c0-.93-.05-1.69-.16-2.29-.05-.66-.16-1.15-.22-1.53-.11-.38-.22-.76-.33-1.09-.55-1.75-1.47-2.95-2.73-3.66-1.26-.71-3-1.04-5.13-1.04h-4.81s-.38.16-.38.38v25.39-.11.05Z"/>
        <path class="cls-5" d="M638.59,43.41c0-.44.22-.66.66-.66h7.92c.44,0,.66.22.66.66v41.23c0,.44-.22.6-.66.6h-7.92c-.44,0-.66-.22-.66-.6v-41.23Z"/>
        <path class="cls-5" d="M655.9,43.41c0-.44.22-.66.66-.66h7.48c.44,0,.82.22,1.04.66l15.02,26.76h.33v-26.76c0-.44.16-.66.6-.66h7.04c.44,0,.66.22.66.66v41.23c0,.44-.22.6-.66.6h-7.37c-.49,0-.82-.22-1.09-.6l-15.13-26.65h-.33v26.65c0,.44-.22.6-.6.6h-7.04c-.44,0-.66-.22-.66-.6v-41.23h.05Z"/>
        <path class="cls-5" d="M696.86,75.63c-.27-.76-.44-1.47-.6-2.18-.16-.71-.27-1.47-.33-2.35-.05-.87-.16-1.86-.22-3,0-1.15-.05-2.46-.05-4.1s0-2.95.05-4.04c0-1.15.11-2.13.22-3,.05-.87.16-1.64.33-2.35.16-.71.38-1.42.6-2.18,1.09-3.44,3-6.06,5.79-7.75,2.79-1.69,6.06-2.57,9.83-2.57,1.97,0,3.82.22,5.46.71,1.64.44,3.06,1.09,4.31,1.86,1.26.82,2.35,1.75,3.28,2.84.87,1.09,1.58,2.29,2.08,3.55.22.44.11.71-.22.93l-6.72,2.79c-.44.16-.76,0-.87-.33-.82-1.47-1.8-2.57-3-3.28-1.15-.71-2.62-1.09-4.31-1.09-1.86,0-3.33.44-4.48,1.31-1.15.87-1.91,2.02-2.35,3.44-.11.38-.22.82-.33,1.31s-.16,1.04-.22,1.75-.11,1.53-.16,2.51v7.1c0,.98.05,1.86.16,2.51,0,.71.11,1.26.22,1.75.05.49.22.93.33,1.26.44,1.47,1.26,2.62,2.4,3.44,1.15.82,2.68,1.26,4.53,1.26,1.58,0,3-.38,4.26-1.15,1.26-.76,2.13-1.8,2.57-3.22.16-.55.27-1.15.38-1.8.05-.66.16-1.47.16-2.4,0-.27-.16-.38-.38-.38h-5.73c-.44,0-.6-.22-.6-.66v-6.06c0-.44.16-.66.6-.66h14.64c.44,0,.6.22.6.66v3.5c0,1.86-.05,3.66-.22,5.3s-.44,3.11-.82,4.26c-1.09,3.39-3,6.06-5.68,7.86-2.73,1.8-5.95,2.73-9.78,2.73s-7.04-.87-9.83-2.57c-2.79-1.69-4.7-4.31-5.79-7.7"/>
        <path class="cls-5" d="M750.81,75.53c-.27-.66-.44-1.37-.6-2.02-.11-.71-.22-1.47-.33-2.29-.11-.87-.16-1.86-.22-3,0-1.15-.05-2.51-.05-4.15s0-3,.05-4.15c0-1.15.11-2.13.22-3,.05-.87.22-1.58.33-2.29.16-.66.38-1.37.6-2.08,1.15-3.5,3-6.12,5.57-7.81,2.62-1.69,5.79-2.62,9.5-2.62s6.66.82,9.23,2.46c2.51,1.64,4.37,3.93,5.57,6.94.22.38.05.6-.33.76l-6.83,3.06c-.38.22-.66.11-.87-.33-.6-1.37-1.42-2.51-2.46-3.44-1.09-.93-2.51-1.37-4.31-1.37-1.64,0-3.06.44-4.1,1.26-1.09.82-1.8,1.97-2.29,3.44-.11.38-.22.76-.27,1.2-.05.44-.16.98-.22,1.64s-.11,1.47-.11,2.51v7.48c0,.98,0,1.8.11,2.51,0,.66.16,1.2.22,1.64s.16.82.27,1.2c.49,1.47,1.2,2.62,2.29,3.44,1.04.82,2.4,1.26,4.1,1.26,1.8,0,3.22-.49,4.31-1.37,1.04-.93,1.86-2.08,2.46-3.44.22-.44.49-.55.87-.33l6.83,3.06c.44.11.55.38.33.76-1.2,3-3.06,5.3-5.57,6.94-2.51,1.64-5.57,2.46-9.23,2.46s-6.94-.87-9.5-2.57c-2.62-1.69-4.48-4.37-5.57-7.81"/>
        <path class="cls-5" d="M802.2,85.9c-3.71,0-6.94-.87-9.72-2.57-2.79-1.69-4.7-4.31-5.79-7.7-.27-.76-.44-1.47-.6-2.18-.11-.71-.22-1.47-.33-2.35-.11-.87-.16-1.86-.22-3v-8.14c0-1.15.11-2.13.22-3,.05-.87.22-1.64.33-2.35.16-.71.38-1.42.6-2.18,1.09-3.39,3-5.95,5.79-7.7,2.79-1.69,6.01-2.62,9.72-2.62s6.94.87,9.72,2.62c2.79,1.69,4.7,4.31,5.79,7.7.22.76.44,1.47.6,2.18.16.71.27,1.47.38,2.35.05.87.11,1.86.16,3,0,1.15.05,2.51.05,4.04s0,2.95-.05,4.1c0,1.09-.11,2.13-.16,3-.11.87-.22,1.64-.38,2.35-.11.71-.33,1.42-.6,2.18-1.09,3.44-3,6.06-5.79,7.7-2.79,1.69-6.01,2.57-9.72,2.57ZM802.2,77.82c1.75,0,3.17-.44,4.31-1.26,1.15-.82,1.91-1.97,2.4-3.44.11-.38.22-.82.27-1.26.11-.49.16-1.04.22-1.75,0-.71.11-1.53.11-2.51v-7.1c0-.98,0-1.8-.11-2.51,0-.71-.11-1.26-.22-1.75-.05-.49-.22-.93-.27-1.26-.49-1.47-1.26-2.62-2.4-3.44-1.15-.82-2.57-1.26-4.31-1.26s-3.17.44-4.31,1.26c-1.15.82-1.91,1.97-2.4,3.44-.16.38-.22.82-.33,1.26-.05.49-.16,1.04-.22,1.75,0,.71-.11,1.53-.11,2.51v7.1c0,.98,0,1.86.11,2.51.05.71.16,1.26.22,1.75s.22.93.33,1.26c.44,1.47,1.26,2.62,2.4,3.44,1.15.82,2.57,1.26,4.31,1.26Z"/>
        <path class="cls-5" d="M826.23,76.56h7.48c.38,0,.66.27.66.66v7.48c0,.33-.27.6-.6.6h-7.48c-.33,0-.6-.27-.6-.6v-7.48c0-.38.27-.66.66-.66h-.11Z"/>
        <path class="cls-5" d="M885.59,85.25c-.44,0-.71-.22-.82-.6l-7.37-26.43h-.11l-7.43,26.43c-.11.44-.38.6-.82.6h-6.23c-.38,0-.66-.22-.76-.6l-10.98-41.23c-.05-.44.05-.66.49-.66h8.03c.44,0,.66.22.76.66l6.12,26.65h.11l7.26-26.65c.11-.44.38-.66.82-.66h5.41c.38,0,.66.22.76.66l7.48,26.65h.16l5.84-26.65c0-.44.33-.66.76-.66h7.97c.44,0,.6.22.49.66l-10.92,41.23c-.11.44-.38.6-.82.6h-6.23Z"/>
        <path class="cls-5" d="M908.36,43.41c0-.44.22-.66.66-.66h7.92c.44,0,.6.22.6.66v33.31s.11.38.38.38h18.73c.44,0,.66.22.66.66v6.94c0,.44-.22.6-.66.6h-27.63c-.44,0-.66-.22-.66-.6v-41.23h0v-.05Z"/>
        <path class="cls-5" d="M942.71,43.41c0-.44.22-.66.66-.66h7.92c.44,0,.66.22.66.66v33.31s.11.38.38.38h18.73c.44,0,.66.22.66.66v6.94c0,.44-.22.6-.66.6h-27.69c-.44,0-.66-.22-.66-.6v-41.23h0v-.05Z"/>
        <path class="cls-11" d="M969.42,115.77H229.78"/>
        <path class="cls-5" d="M246.33,147.34c0-.33.16-.49.49-.49h1.75c.33,0,.6.16.71.49l10.05,22.88h.22l9.83-22.88c.11-.33.33-.49.66-.49h1.8c.33,0,.49.16.49.49v31.02c0,.33-.16.49-.49.49h-1.69c-.33,0-.49-.16-.49-.49v-25.01h-.16l-8.96,20.26s-.22.33-.33.38c-.11.11-.27.11-.55.11h-.93c-.38,0-.66-.16-.76-.55l-8.96-20.26h-.16v25.01c0,.33-.16.49-.49.49h-1.69c-.33,0-.49-.16-.49-.49v-31.02h0l.16.05Z"/>
        <path class="cls-5" d="M288.21,179.28c-2.13,0-3.88-.49-5.3-1.47-1.42-.98-2.46-2.46-3.06-4.42-.22-.71-.38-1.47-.49-2.35s-.16-2.02-.16-3.44.05-2.57.16-3.44c.11-.93.27-1.69.49-2.4.6-1.86,1.58-3.33,3-4.31,1.42-.98,3.11-1.47,5.08-1.47s3.66.49,5.08,1.47c1.42.98,2.46,2.46,3.06,4.31.27.71.44,1.47.49,2.35.11.87.16,2.08.16,3.6,0,.33-.16.49-.49.49h-14.2s-.27.11-.27.33c0,.93,0,1.69.11,2.29s.22,1.15.33,1.64c.55,1.47,1.31,2.62,2.35,3.33,1.04.71,2.35,1.04,3.82,1.04s2.62-.27,3.6-.82c.98-.55,1.8-1.2,2.46-2.08.22-.27.38-.27.66-.11l1.04.98s.22.44.05.66c-.82,1.09-1.86,2.02-3.17,2.73-1.31.71-2.95,1.04-4.75,1.04l-.05.05ZM293.89,166.01s.27-.11.27-.27c0-.71,0-1.31-.11-1.8-.05-.55-.16-.98-.33-1.42-.44-1.42-1.15-2.46-2.13-3.17s-2.24-1.04-3.71-1.04-2.68.38-3.66,1.04c-.98.71-1.69,1.75-2.13,3.17-.16.44-.27.93-.33,1.42-.05.55-.11,1.09-.11,1.8,0,.22.11.27.27.27h11.96Z"/>
        <path class="cls-5" d="M332.23,178.85c-.33,0-.49-.16-.49-.49v-13.27c0-4.48-1.91-6.72-5.73-6.72-1.69,0-3.06.55-4.2,1.64-1.15,1.09-1.69,2.62-1.69,4.59v13.71c0,.33-.16.49-.49.49h-1.53c-.33,0-.44-.16-.44-.49v-13.27c0-4.48-1.91-6.72-5.68-6.72-1.69,0-3.06.55-4.2,1.64-1.15,1.09-1.69,2.62-1.69,4.59v13.71c0,.33-.16.49-.44.49h-1.53c-.33,0-.44-.16-.44-.49v-21.46c0-.33.16-.49.44-.49h1.53c.33,0,.44.16.44.49v2.68h.05c.55-1.09,1.37-1.97,2.46-2.62,1.09-.66,2.4-.98,3.99-.98,3.39,0,5.62,1.37,6.77,4.2h.05c.66-1.31,1.53-2.35,2.73-3.06,1.15-.76,2.68-1.09,4.48-1.09,2.46,0,4.37.76,5.73,2.24s2.02,3.6,2.02,6.33v13.87c0,.33-.16.49-.44.49h-1.53v.11l-.16-.11Z"/>
        <path class="cls-5" d="M351.5,179.28c-1.8,0-3.28-.33-4.26-1.04-1.04-.71-1.8-1.58-2.35-2.62h-.05v2.73c0,.33-.16.49-.44.49h-1.53c-.33,0-.44-.16-.44-.49v-31.02c0-.33.16-.49.44-.49h1.53c.33,0,.44.16.44.49v12.29h.05c.55-1.04,1.31-1.91,2.35-2.62,1.04-.71,2.46-1.04,4.26-1.04,3.77,0,6.23,1.75,7.37,5.35.27.93.49,1.86.6,2.89.11,1.04.22,2.18.22,3.44s-.05,2.4-.22,3.39c-.11,1.04-.33,1.97-.6,2.89-1.15,3.55-3.6,5.35-7.37,5.35M351.01,176.88c1.47,0,2.68-.33,3.55-.98.93-.66,1.58-1.64,2.02-2.95.27-.71.44-1.53.49-2.4.11-.87.11-1.8.11-2.84s0-1.97-.11-2.89c-.11-.93-.27-1.69-.49-2.46-.44-1.26-1.09-2.29-2.02-2.95-.93-.66-2.08-.98-3.55-.98-1.37,0-2.57.33-3.5.98-.98.66-1.64,1.64-2.08,2.95-.22.66-.38,1.37-.44,2.24-.11.87-.16,1.86-.16,3.11s.05,2.24.16,3.06.27,1.53.44,2.18c.44,1.31,1.09,2.29,2.08,2.95.98.66,2.13.98,3.5.98"/>
        <path class="cls-5" d="M374.11,179.28c-2.13,0-3.88-.49-5.3-1.47-1.42-.98-2.46-2.46-3.06-4.42-.22-.71-.38-1.47-.49-2.35-.11-.87-.16-2.02-.16-3.44s.05-2.57.16-3.44c.11-.93.27-1.69.49-2.4.6-1.86,1.58-3.33,3-4.31,1.42-.98,3.11-1.47,5.08-1.47s3.66.49,5.08,1.47c1.42.98,2.46,2.46,3.06,4.31.27.71.44,1.47.49,2.35.11.87.16,2.08.16,3.6,0,.33-.16.49-.49.49h-14.2s-.27.11-.27.33c0,.93,0,1.69.11,2.29s.22,1.15.33,1.64c.55,1.47,1.31,2.62,2.35,3.33,1.04.71,2.35,1.04,3.82,1.04s2.62-.27,3.6-.82c.98-.55,1.8-1.2,2.46-2.08.22-.27.38-.27.66-.11l1.04.98s.22.44.05.66c-.82,1.09-1.86,2.02-3.17,2.73-1.31.71-2.95,1.04-4.75,1.04l-.05.05ZM379.85,166.01s.27-.11.27-.27c0-.71,0-1.31-.11-1.8-.05-.55-.16-.98-.33-1.42-.44-1.42-1.15-2.46-2.13-3.17s-2.24-1.04-3.71-1.04-2.68.38-3.66,1.04c-.98.71-1.69,1.75-2.13,3.17-.16.44-.27.93-.33,1.42-.05.55-.11,1.09-.11,1.8,0,.22.11.27.27.27h11.96,0Z"/>
        <path class="cls-5" d="M389.95,178.85c-.33,0-.44-.16-.44-.49v-21.46c0-.33.16-.49.44-.49h1.53c.33,0,.44.16.44.49v2.89h.05c.44-1.09,1.09-1.97,2.08-2.73.98-.76,2.18-1.09,3.77-1.09.87,0,1.69.16,2.46.44s1.42.66,1.91,1.15c.27.16.27.38.11.6l-.93,1.31s-.38.27-.71.11c-.55-.33-1.04-.6-1.58-.82-.55-.22-1.15-.33-1.86-.33-.98,0-1.8.22-2.46.6-.66.44-1.2.93-1.64,1.64-.44.66-.71,1.47-.93,2.4s-.33,1.91-.33,2.95v12.4c0,.33-.16.49-.44.49h-1.53.05v-.05Z"/>
        <path class="cls-5" d="M426.16,179.28c-2.02,0-3.71-.49-5.13-1.47-1.42-.98-2.4-2.46-3-4.31-.27-.76-.44-1.58-.55-2.46-.11-.87-.22-2.02-.22-3.39s.05-2.46.22-3.33c.11-.87.33-1.69.55-2.46.6-1.86,1.58-3.33,3-4.31,1.42-.98,3.11-1.47,5.13-1.47s3.71.49,5.13,1.47c1.42.98,2.46,2.46,3.06,4.31.27.76.44,1.58.55,2.46.11.87.22,2.02.22,3.33s-.05,2.51-.22,3.39c-.11.87-.33,1.69-.55,2.46-.6,1.86-1.64,3.33-3.06,4.31-1.42.98-3.11,1.47-5.13,1.47ZM426.16,176.88c1.42,0,2.68-.38,3.66-1.09.98-.71,1.69-1.75,2.13-3.11.22-.66.38-1.31.49-2.13.11-.76.16-1.75.16-3s-.05-2.18-.16-2.95c-.11-.76-.27-1.47-.49-2.13-.44-1.37-1.15-2.4-2.13-3.11s-2.18-1.09-3.66-1.09-2.62.38-3.6,1.09c-.98.71-1.69,1.75-2.13,3.11-.22.66-.38,1.31-.44,2.13-.11.76-.16,1.75-.16,2.95s.05,2.24.16,3c.11.76.27,1.47.44,2.13.44,1.37,1.15,2.4,2.13,3.11.98.71,2.18,1.09,3.6,1.09Z"/>
        <path class="cls-5" d="M443.19,178.85c-.33,0-.49-.16-.49-.49v-19.39s-.11-.27-.27-.27h-2.35c-.33,0-.44-.16-.44-.49v-1.31c0-.33.16-.49.44-.49h2.35s.27-.11.27-.27v-2.4c0-1.37.11-2.46.33-3.33.22-.87.55-1.58,1.04-2.13.49-.55,1.09-.87,1.86-1.09.76-.22,1.69-.33,2.79-.33h1.26c.33,0,.44.16.44.49v1.47c0,.33-.16.49-.44.49h-.98c-.82,0-1.47.05-2.02.16-.55.11-.93.33-1.2.6-.27.33-.49.71-.6,1.26-.11.55-.16,1.2-.16,2.08v2.73s.11.27.27.27h4.64c.33,0,.44.16.44.49v1.31c0,.33-.16.49-.44.49h-4.64s-.27.11-.27.27v19.39c0,.33-.16.49-.44.49h-1.53.16Z"/>
        <path class="cls-5" d="M467.39,147.34c0-.33.16-.49.49-.49h1.75c.33,0,.6.16.71.49l10.05,22.88h.22l9.83-22.88c.11-.33.33-.49.66-.49h1.8c.33,0,.49.16.49.49v31.02c0,.33-.16.49-.49.49h-1.69c-.33,0-.49-.16-.49-.49v-25.01h-.16l-8.96,20.26s-.22.33-.33.38c-.11.11-.27.11-.55.11h-.93c-.38,0-.66-.16-.76-.55l-8.96-20.26h-.16v25.01c0,.33-.16.49-.49.49h-1.69c-.33,0-.49-.16-.49-.49v-31.02h0l.16.05Z"/>
        <path class="cls-5" d="M509,158.26c-1.31,0-2.4.16-3.28.44-.82.33-1.58.71-2.24,1.26-.27.22-.49.22-.71-.05l-.76-1.15s-.11-.49.16-.66c.82-.71,1.75-1.2,2.89-1.58,1.15-.38,2.51-.55,4.04-.55,1.42,0,2.62.16,3.6.38.98.27,1.8.66,2.46,1.26.66.6,1.09,1.37,1.42,2.29.33.93.44,2.13.44,3.5v14.96c0,.33-.16.49-.49.49h-1.47c-.33,0-.49-.16-.49-.49v-2.35h-.05c-.44.93-1.2,1.69-2.35,2.35-1.15.66-2.62.93-4.37.93-2.18,0-3.93-.55-5.3-1.64-1.31-1.09-2.02-2.79-2.02-4.97s.71-3.93,2.13-5.02c1.42-1.09,3.44-1.64,6.12-1.64h5.52s.27-.11.27-.27v-2.29c0-.93-.11-1.69-.27-2.35-.16-.66-.49-1.2-.93-1.64s-1.04-.71-1.75-.93c-.71-.22-1.64-.27-2.73-.27M508.34,176.94c1.86,0,3.39-.44,4.53-1.37,1.15-.93,1.69-2.13,1.69-3.66v-3.44s-.11-.27-.27-.27h-5.19c-2.18,0-3.77.38-4.7,1.09-.98.71-1.42,1.8-1.42,3.33,0,1.42.49,2.51,1.37,3.22.93.76,2.24,1.09,3.99,1.09"/>
        <path class="cls-5" d="M539.69,178.79c-.33,0-.49-.16-.49-.49v-13.27c0-4.48-1.91-6.72-5.68-6.72-1.69,0-3.06.55-4.2,1.64-1.15,1.09-1.69,2.62-1.69,4.59v13.71c0,.33-.16.49-.49.49h-1.53c-.33,0-.49-.16-.49-.49v-21.46c0-.33.16-.49.49-.49h1.53c.33,0,.49.16.49.49v2.68h.05c.55-1.09,1.37-1.97,2.46-2.62,1.09-.66,2.4-.98,3.99-.98,2.46,0,4.31.76,5.62,2.24,1.31,1.47,1.97,3.6,1.97,6.33v13.87c0,.33-.16.49-.44.49,0,0-1.58,0-1.58,0Z"/>
        <path class="cls-5" d="M564.37,178.79c-.33,0-.49-.16-.49-.49v-13.27c0-4.48-1.91-6.72-5.68-6.72-1.69,0-3.06.55-4.2,1.64-1.15,1.09-1.69,2.62-1.69,4.59v13.71c0,.33-.16.49-.49.49h-1.53c-.33,0-.49-.16-.49-.49v-21.46c0-.33.16-.49.49-.49h1.53c.33,0,.49.16.49.49v2.68h.05c.55-1.09,1.37-1.97,2.46-2.62,1.09-.66,2.4-.98,3.99-.98,2.46,0,4.31.76,5.62,2.24,1.31,1.47,1.97,3.6,1.97,6.33v13.87c0,.33-.16.49-.44.49,0,0-1.58,0-1.58,0Z"/>
        <path class="cls-5" d="M581.74,158.26c-1.31,0-2.4.16-3.28.44-.82.33-1.58.71-2.18,1.26-.27.22-.49.22-.71-.05l-.76-1.15s-.11-.49.16-.66c.82-.71,1.75-1.2,2.89-1.58,1.15-.38,2.51-.55,4.04-.55,1.42,0,2.62.16,3.6.38.98.27,1.8.66,2.46,1.26.66.6,1.09,1.37,1.42,2.29.33.93.44,2.13.44,3.5v14.96c0,.33-.16.49-.49.49h-1.47c-.33,0-.49-.16-.49-.49v-2.35h0c-.44.93-1.2,1.69-2.35,2.35-1.15.66-2.62.93-4.42.93-2.18,0-3.93-.55-5.3-1.64-1.31-1.09-2.02-2.79-2.02-4.97s.71-3.93,2.13-5.02c1.42-1.09,3.44-1.64,6.12-1.64h5.52s.27-.11.27-.27v-2.29c0-.93-.05-1.69-.27-2.35-.16-.66-.49-1.2-.93-1.64s-1.04-.71-1.75-.93c-.71-.22-1.64-.27-2.73-.27M581.14,176.94c1.86,0,3.39-.44,4.53-1.37,1.15-.93,1.69-2.13,1.69-3.66v-3.44s-.05-.27-.27-.27h-5.19c-2.18,0-3.77.38-4.7,1.09-.93.71-1.42,1.8-1.42,3.33,0,1.42.49,2.51,1.37,3.22.93.76,2.24,1.09,3.99,1.09"/>
        <path class="cls-5" d="M598.12,150.45c-.33,0-.49-.16-.49-.49v-2.62c0-.33.16-.49.49-.49h2.02c.33,0,.44.16.44.49v2.62c0,.33-.16.49-.44.49h-2.02ZM598.34,178.79c-.33,0-.49-.16-.49-.49v-21.46c0-.33.16-.49.49-.49h1.53c.33,0,.44.16.44.49v21.46c0,.33-.16.49-.44.49h-1.53Z"/>
        <path class="cls-5" d="M619.53,172.13c-.11-.44-.22-.87-.33-1.31-.11-.49-.22-1.09-.27-1.8,0-.71-.11-1.58-.16-2.57-.05-.98-.05-2.18-.05-3.6s0-2.62.05-3.6c.05-.98.11-1.8.16-2.57.05-.71.16-1.31.27-1.8.11-.49.22-.93.33-1.31.82-2.4,2.02-4.2,3.66-5.35,1.64-1.15,3.71-1.75,6.17-1.75,2.13,0,3.99.49,5.62,1.47,1.58.98,2.84,2.46,3.71,4.42.11.27.05.49-.16.6l-1.53.76s-.44.11-.6-.22c-.71-1.37-1.64-2.51-2.79-3.33-1.15-.82-2.62-1.26-4.37-1.26-1.91,0-3.44.44-4.64,1.31s-2.08,2.24-2.68,3.93c-.05.33-.16.71-.27,1.15-.05.44-.16.98-.22,1.64s-.11,1.47-.16,2.4c0,.93-.05,2.08-.05,3.44s0,2.51.05,3.44c0,.93.05,1.75.16,2.4.05.66.16,1.2.22,1.64.11.44.22.82.27,1.15.6,1.75,1.47,3.06,2.68,3.93,1.15.87,2.73,1.31,4.64,1.31,1.75,0,3.22-.44,4.37-1.26,1.15-.82,2.08-1.91,2.79-3.33.16-.27.38-.33.6-.22l1.53.76s.27.33.16.6c-.87,1.97-2.13,3.44-3.71,4.42-1.58.98-3.5,1.47-5.62,1.47-2.46,0-4.53-.6-6.17-1.75-1.64-1.15-2.84-2.95-3.66-5.35"/>
        <path class="cls-5" d="M652.73,179.28c-2.02,0-3.71-.49-5.13-1.47-1.42-.98-2.4-2.46-3-4.31-.27-.76-.44-1.58-.55-2.46-.11-.87-.22-2.02-.22-3.39s.05-2.46.22-3.33c.11-.87.33-1.69.55-2.46.6-1.86,1.58-3.33,3-4.31,1.42-.98,3.11-1.47,5.13-1.47s3.71.49,5.13,1.47c1.42.98,2.4,2.46,3.06,4.31.27.76.44,1.58.55,2.46.11.87.22,2.02.22,3.33s-.05,2.51-.22,3.39c-.16.87-.33,1.69-.55,2.46-.6,1.86-1.64,3.33-3.06,4.31-1.42.98-3.11,1.47-5.13,1.47ZM652.73,176.88c1.42,0,2.68-.38,3.66-1.09.98-.71,1.69-1.75,2.13-3.11.22-.66.38-1.31.44-2.13.11-.76.16-1.75.16-3s-.05-2.18-.16-2.95c-.05-.76-.22-1.47-.44-2.13-.38-1.37-1.15-2.4-2.13-3.11s-2.24-1.09-3.66-1.09-2.57.38-3.6,1.09c-.98.71-1.69,1.75-2.13,3.11-.22.66-.38,1.31-.44,2.13-.05.76-.16,1.75-.16,2.95s.05,2.24.16,3c.11.76.27,1.47.44,2.13.44,1.37,1.15,2.4,2.13,3.11.98.71,2.18,1.09,3.6,1.09Z"/>
        <path class="cls-5" d="M669.01,178.85c-.33,0-.49-.16-.49-.49v-21.46c0-.33.16-.49.49-.49h1.53c.33,0,.44.16.44.49v2.89h.05c.44-1.09,1.09-1.97,2.08-2.73.98-.71,2.24-1.09,3.77-1.09.87,0,1.69.16,2.46.44.76.27,1.42.66,1.91,1.15.22.16.27.38.05.6l-.93,1.31s-.38.27-.71.11c-.55-.33-1.04-.6-1.58-.82-.55-.22-1.15-.33-1.86-.33-.98,0-1.8.22-2.46.6-.66.44-1.2.93-1.64,1.64-.44.66-.71,1.47-.93,2.4s-.33,1.91-.33,2.95v12.4c0,.33-.16.49-.44.49h-1.53.05l.05-.05Z"/>
        <path class="cls-5" d="M687.08,187.26c-.33,0-.49-.16-.49-.49v-29.93c0-.33.16-.49.49-.49h1.53c.33,0,.49.16.49.49v2.73h.05c.55-1.04,1.31-1.91,2.29-2.62,1.04-.71,2.46-1.04,4.31-1.04,3.77,0,6.23,1.75,7.37,5.35.27.93.49,1.86.6,2.89s.22,2.18.22,3.44,0,2.4-.22,3.39c-.11,1.04-.33,1.97-.6,2.89-1.15,3.55-3.6,5.35-7.37,5.35-1.8,0-3.28-.33-4.31-1.04-1.04-.71-1.8-1.58-2.29-2.62h-.05v11.2c0,.33-.16.49-.49.49h-1.53ZM695.27,176.83c1.47,0,2.68-.33,3.55-.98.93-.66,1.58-1.64,2.02-2.95.22-.71.44-1.53.49-2.4s.11-1.8.11-2.84,0-1.97-.11-2.89c-.05-.93-.22-1.69-.49-2.46-.44-1.26-1.09-2.29-2.02-2.95-.93-.66-2.08-.98-3.55-.98-1.37,0-2.51.33-3.5.98-.93.66-1.64,1.64-2.08,2.95-.22.66-.38,1.37-.44,2.24-.05.87-.16,1.86-.16,3.11s.05,2.24.16,3.06c.05.82.22,1.53.44,2.18.44,1.31,1.09,2.29,2.08,2.95.98.66,2.13.98,3.5.98"/>
        <path class="cls-5" d="M718.26,179.28c-2.02,0-3.71-.49-5.13-1.47-1.42-.98-2.4-2.46-3-4.31-.27-.76-.44-1.58-.55-2.46s-.22-2.02-.22-3.39,0-2.46.22-3.33c.11-.87.27-1.69.55-2.46.6-1.86,1.58-3.33,3-4.31,1.42-.98,3.11-1.47,5.13-1.47s3.71.49,5.13,1.47c1.42.98,2.4,2.46,3.06,4.31.22.76.44,1.58.55,2.46.16.87.22,2.02.22,3.33s0,2.51-.22,3.39c-.11.87-.33,1.69-.55,2.46-.6,1.86-1.64,3.33-3.06,4.31-1.42.98-3.11,1.47-5.13,1.47ZM718.26,176.88c1.42,0,2.68-.38,3.66-1.09.98-.71,1.69-1.75,2.13-3.11.22-.66.38-1.31.44-2.13.11-.76.16-1.75.16-3s-.05-2.18-.16-2.95c-.05-.76-.22-1.47-.44-2.13-.44-1.37-1.15-2.4-2.13-3.11-.98-.71-2.18-1.09-3.66-1.09s-2.62.38-3.6,1.09c-.98.71-1.69,1.75-2.18,3.11-.22.66-.38,1.31-.44,2.13-.05.76-.16,1.75-.16,2.95s.05,2.24.16,3c.05.76.27,1.47.44,2.13.44,1.37,1.15,2.4,2.18,3.11.98.71,2.18,1.09,3.6,1.09Z"/>
        <path class="cls-5" d="M734.54,178.85c-.33,0-.49-.16-.49-.49v-21.46c0-.33.16-.49.49-.49h1.53c.33,0,.44.16.44.49v2.89h.05c.44-1.09,1.09-1.97,2.08-2.73.98-.76,2.18-1.09,3.77-1.09.87,0,1.69.16,2.46.44s1.42.66,1.91,1.15c.22.16.27.38.05.6l-.93,1.31s-.38.27-.71.11c-.55-.33-1.04-.6-1.58-.82-.55-.22-1.15-.33-1.91-.33-.98,0-1.8.22-2.46.6-.66.44-1.2.93-1.64,1.64-.44.66-.71,1.47-.93,2.4s-.33,1.91-.33,2.95v12.4c0,.33-.16.49-.44.49h-1.53l.16-.05Z"/>
        <path class="cls-5" d="M759.39,158.26c-1.31,0-2.4.16-3.28.44-.82.33-1.58.71-2.18,1.26-.27.22-.49.22-.71-.05l-.76-1.15s-.11-.49.16-.66c.82-.71,1.75-1.2,2.89-1.58,1.15-.38,2.51-.55,4.04-.55,1.42,0,2.62.16,3.6.38.98.27,1.8.66,2.46,1.26.66.6,1.09,1.37,1.42,2.29.33.93.44,2.13.44,3.5v14.96c0,.33-.16.49-.49.49h-1.47c-.33,0-.49-.16-.49-.49v-2.35h-.05c-.44.93-1.2,1.69-2.35,2.35-1.15.66-2.62.93-4.37.93-2.18,0-3.93-.55-5.3-1.64-1.31-1.09-2.02-2.79-2.02-4.97s.71-3.93,2.13-5.02c1.42-1.09,3.44-1.64,6.12-1.64h5.52s.27-.11.27-.27v-2.29c0-.93-.11-1.69-.27-2.35-.16-.66-.49-1.2-.93-1.64-.44-.44-1.04-.71-1.75-.93-.71-.22-1.64-.27-2.73-.27M758.79,176.94c1.86,0,3.39-.44,4.53-1.37,1.15-.93,1.69-2.13,1.69-3.66v-3.44s-.05-.27-.27-.27h-5.19c-2.18,0-3.77.38-4.7,1.09-.93.71-1.42,1.8-1.42,3.33,0,1.42.49,2.51,1.37,3.22.93.76,2.24,1.09,3.99,1.09"/>
        <path class="cls-5" d="M781.83,178.96c-2.08,0-3.55-.44-4.37-1.37-.87-.93-1.26-2.46-1.26-4.7v-13.93s-.05-.27-.27-.27h-2.29c-.33,0-.44-.16-.44-.49v-1.31c0-.33.11-.49.44-.49h2.29s.27-.11.27-.27v-6.44c0-.33.16-.49.44-.49h1.53c.33,0,.44.16.44.49v6.44s.11.27.27.27h4.1c.33,0,.44.16.44.49v1.31c0,.33-.16.49-.44.49h-4.1s-.27.11-.27.27v13.82c0,1.47.27,2.51.82,3,.55.49,1.42.76,2.73.76h.87c.33,0,.44.16.44.49v1.47c0,.33-.16.49-.44.49h-1.2v-.05Z"/>
        <path class="cls-5" d="M789.97,150.45c-.33,0-.49-.16-.49-.49v-2.62c0-.33.16-.49.49-.49h2.02c.27,0,.44.16.44.49v2.62c0,.33-.16.49-.44.49h-2.02ZM790.19,178.79c-.33,0-.49-.16-.49-.49v-21.46c0-.33.16-.49.49-.49h1.53c.33,0,.44.16.44.49v21.46c0,.33-.16.49-.44.49h-1.53Z"/>
        <path class="cls-5" d="M807.99,179.28c-2.02,0-3.71-.49-5.13-1.47-1.42-.98-2.4-2.46-3-4.31-.27-.76-.44-1.58-.55-2.46-.11-.87-.16-2.02-.16-3.39s0-2.46.16-3.33c.11-.87.33-1.69.55-2.46.6-1.86,1.58-3.33,3-4.31,1.42-.98,3.11-1.47,5.13-1.47s3.71.49,5.13,1.47c1.42.98,2.46,2.46,3.06,4.31.27.76.44,1.58.55,2.46.16.87.22,2.02.22,3.33s0,2.51-.22,3.39c-.16.87-.33,1.69-.55,2.46-.6,1.86-1.64,3.33-3.06,4.31-1.42.98-3.11,1.47-5.13,1.47ZM807.99,176.88c1.42,0,2.68-.38,3.66-1.09.98-.71,1.69-1.75,2.13-3.11.22-.66.38-1.31.44-2.13.05-.76.11-1.75.11-3s0-2.18-.11-2.95c-.05-.76-.27-1.47-.44-2.13-.44-1.37-1.15-2.4-2.13-3.11-.98-.71-2.18-1.09-3.66-1.09s-2.62.38-3.6,1.09c-.98.71-1.69,1.75-2.18,3.11-.22.66-.38,1.31-.44,2.13-.05.76-.16,1.75-.16,2.95s.05,2.24.16,3c.05.76.22,1.47.44,2.13.44,1.37,1.15,2.4,2.18,3.11.98.71,2.18,1.09,3.6,1.09Z"/>
        <path class="cls-5" d="M838.35,178.79c-.27,0-.49-.16-.49-.49v-13.27c0-4.48-1.91-6.72-5.68-6.72-1.69,0-3.06.55-4.2,1.64-1.15,1.09-1.69,2.62-1.69,4.59v13.71c0,.33-.16.49-.49.49h-1.53c-.33,0-.49-.16-.49-.49v-21.46c0-.33.16-.49.49-.49h1.53c.33,0,.49.16.49.49v2.68h.05c.55-1.09,1.37-1.97,2.46-2.62,1.09-.66,2.4-.98,3.99-.98,2.46,0,4.31.76,5.62,2.24,1.31,1.47,2.02,3.6,2.02,6.33v13.87c0,.33-.16.49-.44.49h-1.64Z"/>
        <path class="cls-5" d="M880.02,180.32s-.49.22-.71,0l-3-3.33c-1.8,1.53-4.1,2.29-6.88,2.29-2.57,0-4.7-.6-6.33-1.8-1.69-1.2-2.89-3-3.66-5.35-.16-.44-.27-.87-.38-1.37-.11-.55-.22-1.15-.27-1.8-.05-.71-.16-1.53-.22-2.51-.05-.98-.05-2.13-.05-3.5s0-2.57.05-3.5c0-.98.11-1.8.22-2.51.05-.71.16-1.31.27-1.8.11-.49.22-.98.38-1.42.76-2.35,1.97-4.15,3.66-5.35,1.69-1.2,3.82-1.8,6.33-1.8s4.64.6,6.33,1.8c1.69,1.2,2.89,3,3.66,5.35.11.44.22.93.38,1.42.11.49.22,1.09.27,1.8.11.71.16,1.53.22,2.51.05.98.05,2.18.05,3.5s0,2.57-.05,3.5c0,.98-.11,1.8-.22,2.51-.05.71-.16,1.31-.27,1.8-.11.55-.27.98-.38,1.37-.22.6-.38,1.15-.66,1.64-.22.49-.55.98-.82,1.42l3.22,3.44s.22.44,0,.66l-1.09,1.09h0l-.05-.05ZM869.42,176.72c2.13,0,3.82-.55,5.13-1.69l-3.71-4.15s-.22-.44,0-.66l1.15-1.09s.49-.16.66.05l3.5,3.88c.16-.27.27-.55.44-.87.11-.27.27-.6.38-.93.05-.33.22-.71.33-1.15.11-.44.22-.98.22-1.64.05-.66.11-1.47.16-2.4v-6.66c-.05-.93-.11-1.75-.16-2.4,0-.66-.11-1.2-.22-1.64-.11-.44-.22-.82-.33-1.15-1.15-3.6-3.66-5.41-7.48-5.41s-6.39,1.8-7.54,5.41c-.05.33-.22.71-.33,1.15-.11.44-.22.98-.27,1.64,0,.66-.11,1.47-.16,2.4v6.66c.05.93.05,1.75.16,2.4.05.66.16,1.2.27,1.64.11.44.22.82.33,1.15,1.15,3.6,3.66,5.41,7.54,5.41"/>
        <path class="cls-5" d="M888.05,178.79c-.27,0-.49-.16-.49-.49v-31.02c0-.33.16-.49.44-.49h10.38c3,0,5.35.82,7.04,2.4,1.69,1.58,2.51,3.82,2.51,6.66s-.82,5.02-2.51,6.61c-1.69,1.58-4.04,2.4-6.99,2.4h-7.92s-.27.11-.27.27v13.11c0,.33-.16.49-.49.49h-1.69v.05ZM898.31,162.41c2.29,0,3.99-.55,5.19-1.69,1.2-1.15,1.8-2.73,1.8-4.81s-.6-3.66-1.8-4.81c-1.2-1.15-2.95-1.69-5.19-1.69h-7.81s-.27.11-.27.27v12.45s.05.27.27.27h7.81Z"/>
        <path class="cls-5" d="M923.27,179.28c-.98,0-2.02-.11-3-.33-.98-.22-1.97-.49-2.84-.82-.93-.33-1.69-.76-2.46-1.2-.76-.44-1.37-.93-1.91-1.37-.27-.22-.27-.44,0-.66l1.09-1.42s.44-.27.66-.05c1.04.82,2.35,1.58,3.82,2.24,1.53.71,3.22,1.04,5.02,1.04,2.51,0,4.48-.6,5.9-1.75,1.42-1.2,2.18-2.79,2.18-4.75,0-.76-.11-1.53-.38-2.18-.27-.66-.66-1.26-1.2-1.8-.55-.55-1.31-.98-2.29-1.37-.98-.38-2.18-.66-3.6-.87l-1.42-.22c-3.06-.44-5.3-1.31-6.77-2.79-1.47-1.42-2.18-3.33-2.18-5.68,0-2.79.87-4.97,2.68-6.61,1.75-1.58,4.15-2.4,7.1-2.4,1.75,0,3.39.27,4.91.71,1.53.49,2.84,1.15,3.93,1.91.27.16.27.38.05.66l-.93,1.47s-.38.27-.66.11c-1.26-.76-2.46-1.37-3.66-1.75-1.2-.38-2.51-.6-3.82-.6-2.18,0-3.93.6-5.19,1.69-1.2,1.15-1.86,2.68-1.86,4.53,0,1.64.55,2.95,1.64,3.99,1.09,1.04,3,1.69,5.62,2.08l1.42.22c3.17.44,5.46,1.37,6.94,2.84,1.42,1.47,2.13,3.39,2.13,5.73,0,1.37-.27,2.57-.71,3.71-.49,1.15-1.15,2.13-2.08,2.95-.93.82-2.02,1.47-3.44,1.91-1.37.44-2.95.71-4.75.71l.05.11Z"/>
        <path class="cls-5" d="M940.96,172.13c-.11-.44-.27-.87-.33-1.31-.11-.49-.22-1.09-.27-1.8,0-.71-.11-1.58-.16-2.57v-7.21c0-.98.11-1.8.16-2.57.05-.71.16-1.31.27-1.8.11-.49.22-.93.33-1.31.82-2.4,2.02-4.2,3.66-5.35,1.64-1.15,3.71-1.75,6.17-1.75,2.13,0,3.99.49,5.62,1.47,1.58.98,2.84,2.46,3.71,4.42.11.27.05.49-.16.6l-1.53.76s-.44.11-.6-.22c-.71-1.37-1.64-2.51-2.79-3.33-1.15-.82-2.62-1.26-4.37-1.26-1.91,0-3.44.44-4.64,1.31s-2.08,2.24-2.68,3.93c-.11.33-.22.71-.27,1.15s-.16.98-.22,1.64c-.05.66-.11,1.47-.16,2.4v6.88c0,.93.05,1.75.16,2.4,0,.66.16,1.2.22,1.64.05.44.16.82.27,1.15.6,1.75,1.47,3.06,2.68,3.93,1.15.87,2.73,1.31,4.64,1.31,1.75,0,3.22-.44,4.37-1.26,1.15-.82,2.08-1.91,2.79-3.33.11-.27.38-.33.6-.22l1.53.76s.22.33.16.6c-.87,1.97-2.13,3.44-3.71,4.42-1.58.98-3.5,1.47-5.62,1.47-2.46,0-4.53-.6-6.17-1.75-1.64-1.15-2.84-2.95-3.66-5.35"/>
      </g>
    </g>
  </g>
</svg>