<?xml version="1.0" encoding="UTF-8"?>
<svg id="Layer_2" data-name="Layer 2" xmlns="http://www.w3.org/2000/svg" viewBox="0 0 144.02 45.2">
  <defs>
    <style>
      .cls-1 {
        fill: #262626;
      }

      .cls-1, .cls-2, .cls-3 {
        stroke-width: 0px;
      }

      .cls-2 {
        fill: #ed2e26;
      }

      .cls-3 {
        fill: #fff;
      }
    </style>
  </defs>
  <g id="PC">
    <g id="Agenda">
      <g>
        <path class="cls-2" d="M18.98,0c12.36,0,18.58,6.61,18.58,6.61,0,0,.71,4.9.26,14.75-.69,14.89-18.83,23.83-18.83,23.84S.84,36.26.15,21.37C-.3,11.51.41,6.61.41,6.61.41,6.61,6.62,0,18.98,0Z"/>
        <path class="cls-1" d="M60.79,11.69c-6,0-10.87,4.87-10.87,10.87,0,3.63,1.53,6.86,4.41,9.35,2.7,2.33,6.58,3.94,11.05,4.68.64-.35,1.85-1.54,2.23-2.35-3.3-.57-4.81-1.13-4.81-1.13.43-.04.86-.13,1.27-.25,4.4-1.24,7.63-5.58,7.59-10.3-.06-6-4.88-10.87-10.87-10.87h0ZM60.79,30.31c-4.28,0-7.74-3.47-7.74-7.74,0-4.28,3.47-7.74,7.74-7.74,4.28,0,7.74,3.47,7.74,7.74,0,4.27-3.47,7.74-7.74,7.74h0ZM141.19,29.28c.67-.62,1.7-.62,2.37,0,.62.68.62,1.72,0,2.41-.67.62-1.7.62-2.37,0-.62-.68-.62-1.72,0-2.41ZM141.43,31.45c.53.5,1.36.5,1.89,0,.49-.56.49-1.39,0-1.94-.53-.49-1.36-.49-1.89,0-.49.56-.49,1.39,0,1.94ZM143.05,30.04c0,.26-.16.49-.4.55l.46.75h-.29l-.46-.77h-.23v.77h-.31v-1.85h.66c.15,0,.3.05.41.15.11.1.16.25.16.4h0ZM142.13,29.8v.46h.32c.08.07.16.04.22,0,.05-.05.08-.12.08-.19,0-.18-.1-.27-.3-.26h-.32ZM120.92,27.51l-3.67-9.74h-3.27l5.36,13.6s-2.37,5.64-2.37,5.63c1.56,0,3.27-.11,3.93-1.75,1.57-3.85,7.02-17.48,7.02-17.48h-3.27l-3.72,9.74ZM108.66,32.38s3.08-.06,3.08-2.12V11.75h-3.08v20.63ZM102.34,19.69c-.86-1.18-2.54-2.32-5.01-2.32-4.21,0-7.39,3.23-7.39,7.51,0,2,.69,3.86,1.96,5.24,1.36,1.49,3.24,2.27,5.44,2.27s3.94-.85,5.01-2.32v2.31s3.08-.05,3.08-2.12v-12.49h-3.08v1.92ZM97.87,29.64c-1.84,0-4.58-1.23-4.63-4.6v-.02c0-2.67,1.97-4.68,4.58-4.68,1.95,0,3.53,1.02,4.24,2.73.29.61.42,1.29.39,1.96-.02.69-.18,1.36-.47,1.98-.71,1.64-2.25,2.62-4.11,2.62h0ZM84.61,25.69c0,2.45-1.28,3.82-3.6,3.84-2.35,0-3.5-1.33-3.5-4.07v-7.69h-3.08v8.32c0,1.2.2,2.91,1.18,4.25,1,1.37,2.58,2.07,4.69,2.08h0c2.53,0,3.83-1.13,4.46-2.01v2s2.93-.05,2.93-2.02v-12.62h-3.08v7.92ZM135.2,23.59c-1.58-.68-2.73-1.27-2.71-2.19.01-.61.81-1.19,1.64-1.16.89.03,1.55.64,1.91,1.13,0,0,1.66-1.42,1.86-1.57-.83-1.39-2.33-2.25-3.96-2.26-2.32-.06-4.26,1.76-4.33,4.08-.04,2,1.12,2.82,2.66,3.69l2.52,1.42c.58.41.86.71.84,1.34-.02.98-.84,1.62-1.9,1.68-.78.05-1.42-.41-2.03-1.04-1.18-1.24-3-.64-3.56-.46,1.16,2.66,3.34,4.21,5.53,4.26,2.75.06,4.95-1.97,5.01-4.62.03-1.28-.53-2.87-3.49-4.29Z"/>
        <path class="cls-3" d="M9.78,19.57c0-5.27,4.16-9.55,9.28-9.55,5.13,0,9.28,4.16,9.29,9.29,0,4.09-3.51,7.45-6.22,9.18,1.05.6,3.37,1.23,5.59,1.43,3.29-2.54,5.22-6.46,5.22-10.61.03-7.66-6.16-13.89-13.83-13.92-7.66-.03-13.89,6.16-13.92,13.83,0,.03,0,.06,0,.09,0,4.62,1.92,8.72,5.56,11.87,3.4,2.94,8.38,4.9,14.05,5.83,1.23-.68,3.33-2.68,4.11-3.85-4.73-.61-9.21-1.76-12.21-3.34-4.59-2.41-6.92-5.85-6.92-10.25Z"/>
      </g>
    </g>
  </g>
</svg>