<?xml version="1.0" encoding="UTF-8"?>
<svg id="Layer_2" data-name="Layer 2" xmlns="http://www.w3.org/2000/svg" viewBox="0 0 327.33 88.34">
  <defs>
    <style>
      .cls-1 {
        isolation: isolate;
      }

      .cls-2, .cls-3, .cls-4 {
        stroke-width: 0px;
      }

      .cls-3 {
        fill: none;
      }

      .cls-4 {
        fill: #fff;
      }
    </style>
  </defs>
  <g id="PC">
    <g id="Agenda">
      <g>
        <g id="mark">
          <g id="base">
            <rect class="cls-3" width="86.13" height="88.34"/>
            <path class="cls-2" d="M86.13,88.34H0V0h86.13v88.34Z"/>
          </g>
          <g id="mark-2">
            <g id="Path_23546" data-name="Path 23546">
              <path class="cls-4" d="M39.75,35.79c-.9-.23-1.8-.23-2.93-.45h-8.11v11.04h7.44c1.13,0,2.25,0,3.15-.23,2.03-.23,3.61-1.58,3.83-3.38.23-.9.23-1.8.23-2.7,0-2.03-1.58-3.83-3.61-4.28Z"/>
            </g>
            <g id="Path_23547" data-name="Path 23547">
              <path class="cls-4" d="M28.71,53v1.99c1.55,1.77,3.53,3.31,5.52,4.64,1.55,1.33,3.53,2.43,5.52,3.09,0,0,.22.22.66.22-1.55-3.31-3.31-6.63-5.08-9.94h-6.63Z"/>
            </g>
            <g id="Path_23548" data-name="Path 23548">
              <path class="cls-4" d="M35.53,27.31c2.65,0,5.52.22,8.17.88,2.87.66,5.52,2.65,6.85,5.52,1.33,2.87,1.77,6.18,1.1,9.28-.66,3.98-3.31,7.29-7.29,8.39.44.88,5.3,9.5,5.52,9.94.22-.22.44-.22.66-.44,3.75-2.65,6.85-6.18,9.05-10.16l.02-.88v-20.98c-3.12-1.99-7.09-3.53-11.07-4.42-.66-.22-1.55-.22-2.43-.44-2.43-.22-5.08-.22-5.74.3h-.22c-1.99-.52-3.98-.08-5.96.15-2.87.66-5.52,1.55-8.17,2.65-.22,0-.44.22-.44,1.62h.44c3.09-1.18,6.4-1.4,9.5-1.4Z"/>
            </g>
          </g>
        </g>
        <g class="cls-1">
          <path class="cls-2" d="M119.26,61.84h-4.42V28.71h13.21c2.81,0,5.2.87,6.93,2.38,1.73,1.52,2.38,3.9,2.38,6.93,0,2.38-.65,4.55-1.73,6.06-1.08,1.52-2.81,2.6-4.98,3.03l7.58,14.72h-5.08l-7.29-15.46h-8.81l2.21,14.94v.52ZM127.12,44.17c1.64,0,3.04-.48,3.98-1.45.94-.96,1.41-2.17,1.41-3.85v-2.65c0-1.69-.47-2.89-1.41-3.85-.94-.96-2.34-1.45-3.98-1.45h-10.07v13.25h10.07Z"/>
          <path class="cls-2" d="M153.08,60.95c-1.72,0-3.23-.22-4.52-.88-1.29-.66-2.59-1.55-3.45-2.65-.86-1.1-1.72-2.43-2.15-4.2-.43-1.55-.86-3.31-.86-5.52,0-1.99.22-3.75.86-5.3.65-1.55,1.29-3.09,2.15-4.2.86-1.1,2.15-1.99,3.45-2.65,1.29-.66,2.8-.88,4.52-.88s3.02.22,4.31.88c1.29.66,2.37,1.55,3.23,2.65s1.72,2.43,2.15,3.75c.43,1.55.65,3.09.65,4.86v1.77h-17.67v1.1c0,1.1.22,1.99.43,3.09.43.88.86,1.77,1.51,2.43s1.29,1.1,2.37,1.55c.86.44,1.94.66,3.02.66,1.51,0,2.8-.44,4.09-1.1,1.08-.66,1.94-1.77,2.59-3.31l2.8,1.99c-.86,1.77-1.94,3.09-3.66,4.2-1.51,1.1-3.45,1.77-5.82,1.77ZM152.49,38.21c-1.05,0-1.89.22-2.73.66-.84.44-1.47.88-2.1,1.55s-1.05,1.55-1.47,2.43c-.42.88-.42,1.99-.42,3.09v.44h13.25v-.44c0-2.21-.63-3.98-1.68-5.3-1.26-1.77-2.94-2.43-4.84-2.43Z"/>
          <path class="cls-2" d="M175.77,61.98c-2.43,0-4.2-.44-5.96-1.33-1.55-.88-2.87-1.99-3.98-3.53l2.87-2.21c.88,1.33,1.99,2.21,3.31,2.87s2.65,1.1,4.2,1.1,2.87-.44,3.75-1.1c.88-.66,1.33-1.77,1.33-3.09,0-.88-.22-1.77-.88-2.43s-1.77-1.1-3.53-1.33l-1.99-.66c-1.1-.22-2.21-.44-3.31-.66-.88-.44-1.77-.88-2.65-1.33-.66-.66-1.33-1.33-1.77-2.21-.44-.88-.66-1.77-.66-3.09s.22-2.21.66-3.31c.44-.88,1.1-1.77,1.77-2.21.88-.66,1.77-1.1,2.87-1.33s2.21-.44,3.53-.44c1.99,0,3.75.44,5.08,1.1,1.33.66,2.65,1.77,3.53,2.87l-2.65,2.43c-.66-.88-1.33-1.55-2.43-2.21-1.1-.66-2.43-.88-3.98-.88s-2.87.44-3.75,1.1c-.88.66-1.33,1.55-1.33,2.87s.44,2.21,1.33,2.65c.88.66,1.99.88,3.53,1.33l1.99.22c2.87.44,4.86,1.33,5.96,2.43s1.77,2.65,1.77,4.64c0,2.43-.88,4.42-2.43,5.74-1.55,1.33-3.31,1.99-6.18,1.99Z"/>
          <path class="cls-2" d="M199.46,60.95c-1.72,0-3.23-.22-4.52-.88-1.29-.66-2.59-1.55-3.45-2.65-.86-1.1-1.72-2.43-2.15-4.2-.43-1.55-.86-3.31-.86-5.52,0-1.99.22-3.75.86-5.3.65-1.55,1.29-3.09,2.15-4.2s2.15-1.99,3.45-2.65c1.29-.66,2.8-.88,4.52-.88s3.02.22,4.31.88c1.29.66,2.37,1.55,3.23,2.65s1.72,2.43,2.15,3.75c.43,1.55.65,3.09.65,4.86v1.77h-17.67v1.1c0,1.1.22,1.99.43,3.09.43.88.86,1.77,1.51,2.43s1.29,1.1,2.37,1.55c.86.44,1.94.66,3.02.66,1.51,0,2.8-.44,4.09-1.1,1.08-.66,1.94-1.77,2.59-3.31l2.8,1.99c-.86,1.77-1.94,3.09-3.66,4.2-1.51,1.1-3.45,1.77-5.82,1.77ZM198.97,38.21c-1.07,0-1.92.22-2.78.66-.85.44-1.5.88-2.14,1.55-.64.66-1.07,1.55-1.5,2.43-.43.88-.43,1.99-.43,3.09v.44h13.25v-.44c0-2.21-.64-3.98-1.71-5.3-1.07-1.77-2.78-2.43-4.7-2.43Z"/>
          <path class="cls-2" d="M225.92,61.98c-1.77,0-3.31-.22-4.64-.88-1.33-.66-2.65-1.55-3.53-2.65s-1.77-2.43-2.21-4.2c-.44-1.55-.66-3.53-.66-5.52s.22-3.75.66-5.52c.44-1.55,1.33-3.09,2.21-4.2s2.21-1.99,3.53-2.65c1.33-.66,2.87-.88,4.64-.88,2.43,0,4.42.44,5.96,1.55,1.55,1.1,2.65,2.43,3.31,4.2l-3.31,1.55c-.44-1.33-1.1-2.21-2.21-3.09-1.1-.66-2.43-1.1-3.98-1.1-1.1,0-2.21.22-3.09.66-.88.44-1.55.88-2.21,1.55-.66.66-1.1,1.55-1.33,2.43-.22.88-.44,1.99-.44,3.09v4.2c0,2.21.66,3.98,1.77,5.52,1.1,1.55,2.87,2.21,5.3,2.21,3.09,0,5.3-1.55,6.85-4.42l2.87,1.99c-.88,1.77-1.99,3.31-3.53,4.42-1.55,1.1-3.53,1.77-5.96,1.77Z"/>
          <path class="cls-2" d="M254.14,57.93h0c-.45.65-.67,1.08-1.12,1.74s-.89,1.08-1.34,1.52c-.67.43-1.34.87-2.01,1.08-.89.22-1.79.43-2.68.43-2.68,0-4.69-.87-6.25-2.39-1.56-1.74-2.23-3.9-2.23-6.94v-15.83h4.42v15.46c0,4.42,1.88,6.85,5.42,6.85.83,0,1.46,0,2.08-.22s1.25-.44,1.88-.88c.63-.44,1.04-.88,1.25-1.55.42-.66.42-1.33.42-2.21v-17.45h4.42v24.29h-4.02l-.22-3.9h0Z"/>
          <path class="cls-2" d="M265.01,61.84v-26.5h4.42v4.42h.64c.44-.08,1.33-1.18,2.43-2.28,1.1-.88,4.86-2.13,4.86-2.13h.91v4.42h-1.86c-2.32,0-3.95.46-5.11,1.15-1.16.69-1.86,1.84-1.86,3.22v17.71h-4.42Z"/>
          <path class="cls-2" d="M284.89,30.17c-.8,0-1.41-.2-1.61-.6s-.6-.8-.6-1.41v-.6c0-.6.2-1,.6-1.41s.8-.6,1.61-.6,1.41.2,1.61.6c.4.4.6.8.6,1.41v.6c0,.6-.2,1-.6,1.41s-1,.6-1.61.6ZM282.68,37.54h4.42v24.29h-4.42v-24.29Z"/>
          <path class="cls-2" d="M298.78,61.84c-1.33-.52-2.43-.96-3.09-1.62-.66-.66-1.96-3.09-1.96-3.09v-17.37h-4.42v-4.42h3.73c.88.81,1.33.59,1.77.37.22-.44.44-.88,1.13-1.77v-5.23h2.21v6.63h6.63v4.42h-6.63v17.67h4.42v4.42h-3.78Z"/>
          <path class="cls-2" d="M324.46,37.54h2.87l-10.76,29.54c-.21.63-.63,1.27-.84,1.69-.21.42-.63.84-1.05,1.05s-.84.42-1.48.63c-.63.21-1.27.21-2.11.21h-1.9v-4.42h3.92l1.96-5.23-9.14-25.69h3.94l6.28,17.9,1.16,4.18h.19l1.27-3.81,5.71-16.07Z"/>
        </g>
      </g>
    </g>
  </g>
</svg>