<?xml version="1.0" encoding="UTF-8"?>
<svg id="Layer_2" data-name="Layer 2" xmlns="http://www.w3.org/2000/svg" xmlns:xlink="http://www.w3.org/1999/xlink" viewBox="0 0 336.13 167.94">
  <defs>
    <style>
      .cls-1 {
        fill: #4f008c;
      }

      .cls-1, .cls-2 {
        fill-rule: evenodd;
        stroke-width: 0px;
      }

      .cls-2 {
        fill: #fff;
      }

      .cls-3 {
        mask: url(#mask);
      }
    </style>
    <mask id="mask" x="0" y="0" width="336.13" height="167.94" maskUnits="userSpaceOnUse">
      <g id="b">
        <path id="a" class="cls-2" d="M0,0h336.13v167.93H0V0Z"/>
      </g>
    </mask>
  </defs>
  <g id="Layer_1-2" data-name="Layer 1">
    <g class="cls-3">
      <path class="cls-1" d="M170.29,167.94c13.6,0,23.28-4.19,27.47-7.85v-28.25c-3.14,2.35-9.42,5.23-17.53,5.23-5.75,0-9.94-1.31-13.08-4.18-2.61-2.62-3.92-7.07-3.92-13.08V0h-34.53v35.31h69.06v33.48h-69.06v59.38c0,12.03,3.66,21.71,10.2,28.52,7.33,7.33,18.05,11.25,31.39,11.25M275.97,167.94c19.36,0,34.27-7.07,44.47-17.01,7.51-7.23,12.94-16.36,15.69-26.42l-30.6-10.2c-1.31,4.71-3.92,9.68-8.11,13.6-4.97,4.71-11.77,8.11-21.45,8.11-8.9,0-17.27-3.4-23.28-9.42-6.02-6.28-9.68-15.43-9.68-26.94s3.66-20.66,9.68-26.94c6.02-6.02,14.12-9.16,23.02-9.16,9.42,0,15.96,3.14,20.66,7.85,3.92,3.92,6.28,8.9,7.85,13.86l31.13-10.46c-2.35-9.16-7.33-18.31-14.65-25.9-10.46-10.2-25.63-17.52-45.77-17.52-18.58,0-35.31,7.06-47.35,19.1-12.03,12.29-19.36,29.3-19.36,49.18s7.59,36.88,19.88,49.18,29.04,19.1,47.87,19.1M55.19,167.93c17.53,0,31.91-5.49,41.33-14.65,7.06-7.06,11.25-16.48,11.25-27.46,0-9.94-3.66-18.84-10.46-25.64-6.8-6.8-16.48-11.77-28.77-14.13l-20.14-3.92c-8.37-1.57-13.08-5.75-13.08-11.51,0-7.59,7.33-12.81,19.1-12.81,7.33,0,13.6,2.35,17.79,6.54,2.73,2.97,4.47,6.72,4.97,10.73l29.04-6.54c-.78-8.37-4.71-15.7-10.73-21.71-9.42-9.42-24.06-15.43-41.33-15.43-15.96,0-29.3,5.23-38.46,13.6-7.85,7.33-12.29,17.26-12.29,28.25,0,9.68,3.14,17.79,9.42,24.06,6.28,6.28,15.43,10.98,27.46,13.86l19.88,4.71c9.94,2.35,14.38,6.02,14.38,12.56,0,8.11-7.33,12.82-19.36,12.82-8.63,0-15.69-2.88-20.14-7.59-3.14-3.14-4.97-7.33-5.23-12.03l-29.82,6.54c.78,8.9,4.97,16.74,11.25,23.02,9.94,10.46,25.9,16.74,43.94,16.74"/>
    </g>
  </g>
</svg>