<?xml version="1.0" encoding="UTF-8"?>
<svg id="Layer_2" data-name="Layer 2" xmlns="http://www.w3.org/2000/svg" xmlns:xlink="http://www.w3.org/1999/xlink" viewBox="0 0 235.67 23.12">
  <defs>
    <style>
      .cls-1 {
        fill: url(#linear-gradient);
      }

      .cls-1, .cls-2, .cls-3 {
        stroke-width: 0px;
      }

      .cls-2, .cls-3 {
        fill-rule: evenodd;
      }

      .cls-3 {
        fill: url(#linear-gradient-2);
      }
    </style>
    <linearGradient id="linear-gradient" x1="-307.72" y1="-1247.78" x2="-307.72" y2="-1225.7" gradientTransform="translate(377 1248)" gradientUnits="userSpaceOnUse">
      <stop offset="0" stop-color="#2bbcfa"/>
      <stop offset=".13" stop-color="#3fc5e2"/>
      <stop offset=".28" stop-color="#50cdce"/>
      <stop offset=".45" stop-color="#5cd3bf"/>
      <stop offset=".66" stop-color="#63d6b7"/>
      <stop offset="1" stop-color="#66d8b5"/>
    </linearGradient>
    <linearGradient id="linear-gradient-2" x1="-199.74" y1="-1257.06" x2="-199.74" y2="-1225.7" xlink:href="#linear-gradient"/>
  </defs>
  <g id="PC">
    <g id="Agenda">
      <g>
        <path class="cls-2" d="M79.48,11.61l8.46,10.68h2.96l-7.97-9.94-.66-.82.58-.82L89.83.19h-2.79l-7.56,11.42Z"/>
        <path class="cls-1" d="M70.51.19h-2.46v22.11h2.46V.19Z"/>
        <path class="cls-2" d="M20.57.19v2.46h6.55v19.65h2.46V2.65h7.37V.19h-16.38Z"/>
        <path class="cls-2" d="M2.62,18.18l-2.54.49c.33.65.74,1.23,1.31,1.8.74.65,1.64,1.23,2.62,1.64.98.41,2.05.57,3.11.57.98,0,1.88-.16,2.78-.49.9-.33,1.72-.74,2.37-1.31s1.23-1.23,1.64-1.97c.41-.74.65-1.56.65-2.37,0-.49-.08-1.06-.33-1.56-.16-.49-.49-.98-.82-1.39-.41-.41-.82-.82-1.31-1.15s-1.06-.66-1.56-.9c-.57-.25-1.15-.49-1.8-.66-.25-.08-.57-.16-.82-.25-.25-.16-.57-.25-.9-.33s-.66-.16-.98-.33c-.33-.08-.66-.25-.98-.41-.33-.16-.66-.33-.9-.49-.33-.16-.57-.41-.82-.74-.25-.25-.41-.57-.49-.9-.25-.33-.33-.74-.33-1.15,0-.57.08-1.06.33-1.56.33-.49.65-.9,1.06-1.31.41-.33.9-.66,1.47-.82.57-.25,1.15-.33,1.72-.33,1.23,0,2.29.41,3.19,1.15.33.33.66.66.9,1.06l2.46-.49c-.41-.98-1.06-1.72-1.97-2.46-.66-.49-1.39-.82-2.13-1.15-.82-.25-1.64-.41-2.54-.41-.98,0-1.88.16-2.78.49-.82.33-1.64.74-2.29,1.31-.57.74-1.06,1.39-1.39,2.13-.41.74-.57,1.56-.57,2.37,0,.57.08,1.15.33,1.72.25.57.57,1.06.98,1.47.66.66,1.39,1.23,2.21,1.64.98.49,1.97.82,3.03,1.06.49.16.98.25,1.47.41s.98.33,1.39.57c.49.25.9.49,1.31.74.41.33.66.65.9,1.06s.41.9.33,1.39c0,.57-.16,1.15-.49,1.64-.33.49-.66.9-1.15,1.23-.49.33-.98.57-1.56.82-.57.16-1.15.33-1.8.33-.98,0-1.88-.25-2.78-.74-.57-.25-1.15-.82-1.56-1.47"/>
        <path class="cls-2" d="M60.26,7.4c0,.9-.16,1.8-.49,2.62s-.82,1.47-1.39,2.05c-.57.57-1.31,1.06-2.13,1.39-.82.33-1.64.57-2.62.65l6.22,8.19h-2.76l-7.33-9.83h2.37c.4,0,.8-.08,1.2-.08.4-.08.72-.08,1.04-.24,1.04-.32,1.92-.88,2.56-1.68.64-.8.96-1.76.96-2.88,0-.86-.28-1.72-.74-2.59-.31-.58-.77-1.07-1.34-1.39-.71-.4-1.57-.72-2.32-.81-.64-.08-1.44-.16-2.16-.16h-7.11l-1.56-1.64h8.27c.82,0,1.8.08,2.7.16.98.08,1.88.33,2.62.74,1.23.57,2.21,1.47,2.95,2.54.74,1.15,1.06,2.37,1.06,3.77"/>
        <path class="cls-2" d="M98.35,20.66v2.46h13.92v-2.46h-13.92Z"/>
        <path class="cls-2" d="M98.35.19v2.46h13.92V.19h-13.92Z"/>
        <path class="cls-2" d="M98.35,10.84v2.46h13.92v-2.46h-13.92Z"/>
        <path class="cls-2" d="M217.29.19l7.79,12.21.17.58v9.32h2.46v-9.24l.17-.58L235.67.19h-2.8l-4.91,7.92-1.52,2.39-1.52-2.39-4.83-7.92h-2.8Z"/>
        <path class="cls-2" d="M194.96.19v22.11h6.02c1.73,0,3.46-.25,5.11-.82,1.57-.58,2.97-1.32,4.21-2.39h0c1.15-.99,1.98-2.14,2.47-3.55.58-1.4.82-2.8.82-4.29s-.33-2.89-.82-4.29c-.58-1.4-1.4-2.56-2.47-3.55h0c-1.24-1.07-2.64-1.9-4.21-2.39-1.4-.49-2.89-.74-4.37-.82h-6.76ZM200.69,20.66h-3.28V2.65h3.54c1.4,0,2.8.16,4.11.58,1.23.41,2.39,1.07,3.29,1.89.9.82,1.64,1.81,2.14,2.88.49,1.15.66,2.39.66,3.62s-.16,2.47-.66,3.62c-.49,1.15-1.23,2.14-2.14,2.96-.99.82-2.06,1.48-3.29,1.81-1.32.49-2.63.66-4.03.66"/>
        <path class="cls-3" d="M177.26.76l-10.48,21.53h2.62l1.31-2.62,2.95-5.98c.33-.66.66-1.39.9-2.05.66-1.56,1.39-3.19,2.21-4.67l.49-.98.49.98c.74,1.56,1.47,3.11,2.13,4.67.33.74.66,1.56,1.06,2.37h0l3.19,6.39.98,1.88h2.62L177.26.76h0Z"/>
        <path class="cls-2" d="M138.12,7.4c0,.9-.16,1.8-.49,2.62s-.82,1.47-1.39,2.05c-.57.57-1.31,1.06-2.13,1.39-.82.33-1.64.57-2.62.65l6.22,8.19h-2.76l-7.33-9.83h2.37c.4,0,.8-.08,1.2-.08.4-.08.72-.08,1.04-.24,1.04-.32,1.92-.88,2.56-1.68s.96-1.76.96-2.88c0-.8-.24-1.6-.64-2.4-.4-.8-.96-1.36-1.68-1.76-.76-.47-1.63-.61-2.34-.68-.77-.07-1.55-.12-2.32-.12h-6.6s-1.64-1.64-1.64-1.64h8.27c.82,0,1.8.08,2.78.16.98.08,1.88.33,2.62.74,1.23.57,2.21,1.47,2.95,2.54.65,1.15.98,2.37.98,3.77"/>
        <path class="cls-2" d="M146.66,20.66v2.46h13.92v-2.46h-13.92Z"/>
        <path class="cls-2" d="M146.66.19v2.46h13.92V.19h-13.92Z"/>
        <path class="cls-2" d="M146.66,10.84v2.46h13.92v-2.46h-13.92Z"/>
      </g>
    </g>
  </g>
</svg>