<?xml version="1.0" encoding="utf-8"?>
<!-- Generator: Adobe Illustrator 28.2.0, SVG Export Plug-In . SVG Version: 6.00 Build 0)  -->
<svg version="1.1" id="ec671cd5-8430-447c-ad2d-f67bb826235e"
	 xmlns="http://www.w3.org/2000/svg" xmlns:xlink="http://www.w3.org/1999/xlink" x="0px" y="0px" viewBox="0 0 305.4 62.2"
	 style="enable-background:new 0 0 305.4 62.2;" xml:space="preserve">
<path d="M93.7,24.2v15.1h-3.1c-4.1,0-7.5-3.8-7.5-7.9c0.2-7,1-14.9-8.5-15.8c-0.2,13.5-2.4,31.2,16,32.3h2.2
	c-0.5,1.6-1.4,2.9-2.7,3.9c-1.3,1-2.9,1.5-4.5,1.5c-2.2,0.2-4.2,1.1-5.6,2.7c-1.5,1.6-2.4,3.7-2.4,6c32.7,3.1,22.4-25.4,24-46.4
	c-2.1,0.2-4.2,1.1-5.6,2.7C94.5,19.9,93.7,22,93.7,24.2z"/>
<path d="M305.4,31.7c-0.4-21.3-31.7-21.3-32,0c-0.4,12.9,15.5,20.9,25.5,13c0.8,1,1.8,1.8,2.9,2.3c1.1,0.5,2.4,0.8,3.6,0.8
	L305.4,31.7L305.4,31.7z M289.4,39.3c-2,0-3.9-0.8-5.3-2.2c-1.4-1.4-2.2-3.3-2.2-5.3c0-9.9,14.9-9.9,14.9,0c0,2-0.8,3.9-2.2,5.3
	C293.3,38.5,291.4,39.3,289.4,39.3L289.4,39.3z"/>
<path d="M190.6,24.2c9.8,0,9.8,15,0,15.1S180.8,24.2,190.6,24.2z M190.6,15.6c-21.1,0.4-21.1,32,0,32.4
	C211.6,47.5,211.6,15.9,190.6,15.6z"/>
<path d="M120.5,24.2c9.8,0,9.8,15,0,15.1S110.7,24.2,120.5,24.2z M120.5,15.6c-21.1,0.4-21.1,32,0,32.4
	C141.6,47.5,141.6,15.9,120.5,15.6z"/>
<path d="M171.6,31.7c-0.4-21.3-31.7-21.3-32.1,0C139.2,43.6,152.8,51.8,163,46c-0.1,4-3.4,7.3-7.4,7.3l0,0c-2.2,0.1-4.2,1.1-5.7,2.7
	c-1.5,1.6-2.3,3.8-2.3,6c11.7,1.1,23.4-2.1,24-16L171.6,31.7z M155.6,39.3c-2,0-3.9-0.8-5.3-2.2c-1.4-1.4-2.2-3.3-2.2-5.3
	c0-9.9,14.9-9.9,14.9,0c0,2-0.8,3.9-2.2,5.3C159.4,38.5,157.5,39.3,155.6,39.3L155.6,39.3z"/>
<path d="M228.2,25.2c0.4,0.2,1.1,0.8,1.1,0.8c-0.2-0.1-0.4-0.3-0.5-0.4c3.1,2.7,7.4,3.4,11.2,1.9c-4-15.8-27.3-15.5-31,0.3
	l18.7,10.8c-1.3,0.6-2.7,0.8-4.1,0.7c-1.4-0.2-2.8-0.8-3.9-1.7l0.5,0.4c-3.1-2.7-7.3-3.4-11.1-2c4,15.8,27.3,15.5,31-0.3l-18.8-10.8
	C223.5,23.9,226.1,24,228.2,25.2z"/>
<path d="M270.4,31.7c0-4.3-1.7-8.4-4.7-11.4c-3-3-7.1-4.7-11.3-4.7h-3.1V0.3c-2.2,0.2-4.2,1.1-5.7,2.7c-1.5,1.6-2.3,3.7-2.3,5.9l0,0
	v39c2.2-0.2,4.2-1.1,5.7-2.7c1.5-1.6,2.3-3.7,2.3-5.9l0,0V24.2h3.1c2,0,3.9,0.8,5.3,2.2c1.4,1.4,2.2,3.3,2.2,5.3
	c-0.2,7-0.8,15.7,8.5,16.2L270.4,31.7L270.4,31.7z"/>
<path d="M26.8,8.8C16,8.8,6.2,15.3,2,25.3c-4.2,10-1.9,21.5,5.8,29.1c10.5,10.5,27.5,10.4,38-0.1c1.2-1.2,2.3-2.5,3.3-4
	c7.1-10.6,5.7-24.7-3.3-33.7C40.7,11.7,33.9,8.9,26.8,8.8z M47.2,35.5c0,11.2-9,20.4-20.3,20.4c-11.2,0-20.4-9-20.4-20.3
	c0-11.2,9-20.4,20.3-20.4c5.4,0,10.6,2.1,14.4,5.9C45,24.9,47.2,30.1,47.2,35.5z"/>
<path d="M37.9,25c0-0.3-0.1-0.6-0.2-0.9c-0.2-0.3-0.4-0.5-0.7-0.7l-3.9-2.2c-0.6-0.3-1.3-0.3-1.8,0l-4.5,2.6l-4.5-2.6
	c-0.3-0.2-0.6-0.2-0.9-0.2c-0.3,0-0.6,0.1-0.9,0.2l-3.9,2.2c-0.2,0.1-0.3,0.2-0.5,0.4L15.9,24c-0.1,0.2-0.3,0.4-0.3,0.7
	c-0.1,0.2-0.1,0.5,0,0.8c0.1,0.3,0.2,0.5,0.3,0.7c0.1,0.2,0.3,0.4,0.6,0.5l9.3,5.4c0.6,0.3,1.3,0.3,1.8,0l9.4-5.4
	c0.3-0.2,0.5-0.4,0.7-0.7C37.8,25.7,37.9,25.4,37.9,25L37.9,25z"/>
<path d="M39.6,31.1l-9.3,5.4c-0.3,0.2-0.5,0.4-0.7,0.7c-0.2,0.3-0.2,0.6-0.2,0.9v10.7c0,0.2,0,0.5,0.1,0.7c0.1,0.2,0.2,0.4,0.4,0.6
	c0.3,0.3,0.8,0.5,1.3,0.5c0.3,0,0.6-0.1,0.9-0.2L36,48c0.3-0.2,0.5-0.4,0.7-0.7c0.2-0.3,0.2-0.6,0.2-0.9v-5.1l4.5-2.6
	c0.3-0.2,0.5-0.4,0.7-0.7c0.2-0.3,0.2-0.6,0.2-0.9v-4.5c0-0.7-0.3-1.3-0.9-1.6c-0.3-0.2-0.6-0.2-0.9-0.2
	C40.2,30.9,39.9,30.9,39.6,31.1L39.6,31.1z"/>
<path d="M23.4,36.1L14,30.7c-0.2-0.1-0.5-0.2-0.8-0.2c-0.3,0-0.5,0-0.8,0.1c-0.3,0.1-0.5,0.2-0.7,0.4c-0.2,0.2-0.3,0.4-0.4,0.7
	c-0.1,0.2-0.1,0.4-0.1,0.6v4.5c0,0.3,0.1,0.6,0.2,0.9c0.2,0.3,0.4,0.5,0.7,0.7l4.6,2.7v5.2c0,0.7,0.4,1.2,0.9,1.6l3.9,2.2
	c0.6,0.3,1.3,0.3,1.8,0c0.6-0.3,0.9-0.9,0.9-1.6V37.7c0-0.3-0.1-0.6-0.2-0.9C23.9,36.5,23.6,36.3,23.4,36.1z"/>
</svg>
