<?xml version="1.0" encoding="UTF-8"?>
<svg id="Layer_2" data-name="Layer 2" xmlns="http://www.w3.org/2000/svg" xmlns:xlink="http://www.w3.org/1999/xlink" viewBox="0 0 349.82 107.03">
  <defs>
    <style>
      .cls-1 {
        fill: #fff;
        stroke-width: 0px;
      }
    </style>
  </defs>
  <g id="Hero">
    <a xlink:href="https://bahrain.cyberxglobal.com/">
      <g>
        <a xlink:href="https://kuwait.cyberxglobal.com/">
          <g>
            <polygon class="cls-1" points="62.6 48.35 69.01 40.34 78.72 53.56 66.1 53.56 62.6 48.35"/>
            <path class="cls-1" d="M30.26,86.01L80.23,14.85l1.03-.21C77.39,11.45,61.46-.89,38.15.05,18,.86,4.46,11.1.17,14.64c.64,10.31-1.99,27.4,2.7,46.06,1.66,6.61,4.87,11.3,6.63,14.26,10.25,17.28,25.14,27,34.96,32.07,5.08-2.71,13.47-8.03,21.03-17.48,7.63-9.54,10.97-19.01,12.49-24.57-2.87,5.53-7.82,13.45-16.03,21.03-6.34,5.85-12.63,9.65-17.48,12.09-6.31-4.07-19.28-12.52-26.81-28.91-10.14-22.06-6.54-43.14-7.58-50.82,5.27-3.67,13.89-8.61,26.65-10.76,20.93-3.54,37.4,4.02,43.23,7.04h-14.98l-7.89,10.91-6.84-10.91h-16.03l15.38,20.9-19.72,27.34.4,23.13h.01ZM54.48,30.38c0-1.36,1.1-2.47,2.47-2.47s2.47,1.1,2.47,2.47c0,.99-.59,1.84-1.43,2.23l1.43,7.13h-4.93l1.01-7.38c-.61-.45-1.01-1.16-1.01-1.98h0Z"/>
          </g>
        </a>
        <g>
          <g>
            <path class="cls-1" d="M98.62,59.73v34.57h27.11c3.92,0,7.09-3.17,7.09-7.09v-8.34l-1.98-1.85,1.98-2.48v-7.72c0-3.92-3.17-7.09-7.09-7.09h-27.11ZM123.65,73.39h-14.08v8.08h14.08v4.33h-16.16v-17.37h16.16v4.95Z"/>
            <path class="cls-1" d="M219.04,59.73h27.32c3.63,0,6.57,2.94,6.57,6.57v9.28c0,3.31-2.68,6-6,6h-.73l6.73,12.72h-9.54l-7.25-12.72h-6.26v-8.39h13.82v-4.75h-15.95v25.86h-8.71v-34.57h0Z"/>
            <path class="cls-1" d="M145.57,94.3h-9.94l12.36-28.84c1.49-3.48,4.91-5.73,8.69-5.73h7.88l14.11,34.57h-9.58l-1.86-4.94h-17.4l3.45-8.47h9.88l-4.7-11.76c-.35-.87-1.57-.89-1.94-.03l-10.92,25.19Z"/>
            <path class="cls-1" d="M265.66,94.3h-9.94l12.36-28.84c1.49-3.48,4.91-5.73,8.69-5.73h7.88l14.11,34.57h-9.58l-1.86-4.94h-17.4l3.45-8.47h9.88l-4.7-11.76c-.35-.87-1.57-.89-1.94-.03l-10.92,25.19Z"/>
            <path class="cls-1" d="M349.82,94.3h-1.28c-4.4,0-8.59-1.86-11.55-5.11l-13.19-14.52.15,19.64h-9.47v-34.57h3.18c4,0,7.79,1.77,10.37,4.83l12.12,14.43.04-19.26h9.63v34.57Z"/>
            <rect class="cls-1" x="301.83" y="59.73" width="9.17" height="34.57"/>
            <g>
              <rect class="cls-1" x="181.33" y="59.73" width="9.17" height="34.57"/>
              <polygon class="cls-1" points="206.05 59.73 206.05 73.32 192.3 73.32 192.3 81.35 206.05 81.35 206.05 94.3 215.22 94.3 215.22 59.73 206.05 59.73"/>
            </g>
          </g>
          <g>
            <path class="cls-1" d="M128.64,39.92v.45c0,1.13-.92,2.05-2.05,2.05h-17.73v-19.25h17.73c1.13,0,2.05.92,2.05,2.05h9.36v-4.62c0-4.34-3.52-7.86-7.86-7.86h-23.82c-4.26,0-7.71,3.45-7.71,7.71v23.97c0,4.26,3.45,7.71,7.71,7.71h25.75c3.27,0,5.92-2.65,5.92-5.92v-6.28h-9.36,0Z"/>
            <path class="cls-1" d="M141.72,12.74h10.34v15.51h16.16v9.27h-19.22c-4.02,0-7.28-3.26-7.28-7.28V12.74h0Z"/>
            <path class="cls-1" d="M170.53,12.74v29.58h-21.63v9.8h25.52c3.49,0,6.33-2.83,6.33-6.33V12.74h-10.22Z"/>
            <path class="cls-1" d="M185.02,12.74v39.39h30.89c4.46,0,8.08-3.62,8.08-8.08v-9.51l-2.26-2.11,2.26-2.82v-8.79c0-4.46-3.62-8.08-8.08-8.08h-30.89ZM213.54,28.31h-16.04v9.21h16.04v4.93h-18.41v-19.79h18.41v5.64Z"/>
            <rect class="cls-1" x="240.39" y="28.07" width="21.69" height="9.56"/>
            <path class="cls-1" d="M264.57,42.44v9.68h-29.49c-3.96,0-7.16-3.21-7.16-7.16v-23.91c0-4.59,3.72-8.32,8.32-8.32h28.34v10.63h-26.55v19.07h26.55Z"/>
            <polygon class="cls-1" points="310.32 12.74 322.2 12.74 330.07 24.8 337.82 12.74 349.82 12.74 336.39 32.43 349.58 52.13 338 52.13 330.07 40.61 322.2 52.13 310.32 52.13 324.16 32.43 310.32 12.74"/>
            <path class="cls-1" d="M268.67,12.74h31.13c4.13,0,7.49,3.35,7.49,7.49v10.57c0,3.77-3.06,6.83-6.83,6.83h-.83l7.66,14.5h-10.87l-8.26-14.5h-7.13v-9.56h15.74v-5.41h-18.18v29.47h-9.92V12.74h0Z"/>
          </g>
        </g>
      </g>
    </a>
  </g>
</svg>